{
	"asset":{
		"generator":"Khronos glTF Blender I/O v3.5.30",
		"version":"2.0"
	},
	"scene":0,
	"scenes":[
		{
			"name":"Scene",
			"nodes":[
				0,
				5,
				10,
				15,
				16
			]
		}
	],
	"nodes":[
		{
			"mesh":0,
			"name":"Cube.001",
			"scale":[
				0.8700000047683716,
				0.11999999731779099,
				0.4599999785423279
			],
			"translation":[
				-0.9199999570846558,
				-0.8899999260902405,
				-0.699999988079071
			]
		},
		{
			"mesh":1,
			"name":"Banana_Banana_0",
			"scale":[
				0.8000000715255737,
				0.7999999523162842,
				0.800000011920929
			],
			"translation":[
				3.709245902427938e-06,
				1.621246337890625e-05,
				5.602836608886719e-06
			]
		},
		{
			"children":[
				1
			],
			"name":"Banana",
			"scale":[
				2.5400002002716064,
				2.5400002002716064,
				2.5400002002716064
			],
			"translation":[
				1.4826779079157859e-05,
				-2.002716064453125e-05,
				8.106231689453125e-06
			]
		},
		{
			"children":[
				2
			],
			"name":"RootNode",
			"translation":[
				1.4826779079157859e-05,
				-2.002716064453125e-05,
				8.106231689453125e-06
			]
		},
		{
			"children":[
				3
			],
			"name":"6e19f76207804602b6f3f0dc71ab301a.fbx",
			"rotation":[
				0.70710688829422,
				0,
				0,
				0.7071066498756409
			],
			"translation":[
				0,
				2.0503997802734375e-05,
				-2.47955322265625e-05
			]
		},
		{
			"children":[
				4
			],
			"name":"Sketchfab_model",
			"rotation":[
				-0.7969413995742798,
				0.024207841604948044,
				0.6027220487594604,
				0.03200851008296013
			],
			"scale":[
				0.004999999888241291,
				0.004999999888241291,
				0.004999999888241291
			],
			"translation":[
				1.3599998950958252,
				-0.949999988079071,
				-0.7400000095367432
			]
		},
		{
			"mesh":2,
			"name":"Banana_Banana_0.001",
			"rotation":[
				-0.7189141511917114,
				-0.09773814678192139,
				-0.03757195547223091,
				0.687166690826416
			],
			"scale":[
				0.4000000059604645,
				0.40000003576278687,
				0.4000000059604645
			],
			"translation":[
				28.860000610351562,
				-37.320003509521484,
				-17.270000457763672
			]
		},
		{
			"children":[
				6
			],
			"name":"Banana.001",
			"scale":[
				2.5399999618530273,
				2.5399997234344482,
				2.5399997234344482
			]
		},
		{
			"children":[
				7
			],
			"name":"RootNode.001"
		},
		{
			"children":[
				8
			],
			"name":"6e19f76207804602b6f3f0dc71ab301a.fbx.001",
			"rotation":[
				0.70710688829422,
				0,
				0,
				0.7071066498756409
			]
		},
		{
			"children":[
				9
			],
			"name":"Sketchfab_model.001",
			"rotation":[
				-0.70710688829422,
				0,
				0,
				0.7071066498756409
			],
			"scale":[
				0.009999999776482582,
				0.010000000707805157,
				0.010000000707805157
			]
		},
		{
			"mesh":3,
			"name":"Banana_Banana_0.002",
			"translation":[
				6.367345122271217e-06,
				6.873902748338878e-06,
				-2.162599685107125e-06
			]
		},
		{
			"children":[
				11
			],
			"name":"Banana.002",
			"scale":[
				2.5400002002716064,
				2.5399999618530273,
				2.5399999618530273
			],
			"translation":[
				1.144282941822894e-05,
				1.1623535101534799e-05,
				1.3748518540523946e-05
			]
		},
		{
			"children":[
				12
			],
			"name":"RootNode.002",
			"translation":[
				1.144282941822894e-05,
				1.1623535101534799e-05,
				1.3748518540523946e-05
			]
		},
		{
			"children":[
				13
			],
			"name":"6e19f76207804602b6f3f0dc71ab301a.fbx.002",
			"rotation":[
				0.70710688829422,
				0,
				0,
				0.7071066498756409
			],
			"translation":[
				1.1442833056207746e-05,
				1.4929692042642273e-05,
				0
			]
		},
		{
			"children":[
				14
			],
			"name":"Sketchfab_model.002",
			"rotation":[
				-0.41389915347099304,
				0,
				0.9103227257728577,
				6.149083020545731e-08
			],
			"scale":[
				0.004000000189989805,
				0.004000000189989805,
				0.004000000189989805
			],
			"translation":[
				0.4699999988079071,
				-0.9599999189376831,
				-0.7599999904632568
			]
		},
		{
			"mesh":4,
			"name":"Cube",
			"scale":[
				1.9199999570846558,
				1.0800000429153442,
				1.3333300352096558
			]
		}
	],
	"materials":[
		{
			"doubleSided":true,
			"name":"Bedspread",
			"pbrMetallicRoughness":{
				"baseColorFactor":[
					0.20507828891277313,
					0.5840782523155212,
					0.11193255335092545,
					1
				],
				"metallicFactor":0,
				"roughnessFactor":0.5
			}
		},
		{
			"doubleSided":true,
			"name":"Pillow",
			"pbrMetallicRoughness":{
				"baseColorFactor":[
					0.8275567293167114,
					0.8275567293167114,
					0.8275567293167114,
					1
				],
				"metallicFactor":0,
				"roughnessFactor":0.5
			}
		},
		{
			"doubleSided":true,
			"name":"Bedsheet",
			"pbrMetallicRoughness":{
				"baseColorFactor":[
					0.5595998167991638,
					0.5595998167991638,
					0.5595998167991638,
					1
				],
				"metallicFactor":0,
				"roughnessFactor":0.5
			}
		},
		{
			"doubleSided":true,
			"name":"Banana",
			"normalTexture":{
				"index":0
			},
			"pbrMetallicRoughness":{
				"baseColorTexture":{
					"index":1
				},
				"metallicFactor":0,
				"metallicRoughnessTexture":{
					"index":2
				}
			}
		},
		{
			"doubleSided":true,
			"name":"Banana.001",
			"normalTexture":{
				"index":3
			},
			"pbrMetallicRoughness":{
				"baseColorTexture":{
					"index":4
				},
				"metallicFactor":0,
				"metallicRoughnessTexture":{
					"index":5
				}
			}
		},
		{
			"doubleSided":true,
			"name":"Banana.002",
			"normalTexture":{
				"index":6
			},
			"pbrMetallicRoughness":{
				"baseColorTexture":{
					"index":7
				},
				"metallicFactor":0,
				"metallicRoughnessTexture":{
					"index":8
				}
			}
		},
		{
			"doubleSided":true,
			"name":"Default",
			"pbrMetallicRoughness":{
				"baseColorFactor":[
					0.12743744254112244,
					0.2422809600830078,
					0.1356334090232849,
					1
				],
				"metallicFactor":0,
				"roughnessFactor":0.5
			}
		},
		{
			"doubleSided":true,
			"name":"Window",
			"pbrMetallicRoughness":{
				"baseColorFactor":[
					1,
					0.9525113105773926,
					0.5551972389221191,
					1
				],
				"metallicFactor":0,
				"roughnessFactor":0.5
			}
		},
		{
			"doubleSided":true,
			"name":"Floor",
			"pbrMetallicRoughness":{
				"baseColorTexture":{
					"index":9
				},
				"metallicFactor":0,
				"roughnessFactor":0.5
			}
		},
		{
			"doubleSided":true,
			"name":"Wall",
			"pbrMetallicRoughness":{
				"baseColorFactor":[
					0.6172057390213013,
					0.7991023063659668,
					0.7912980914115906,
					1
				],
				"metallicFactor":0,
				"roughnessFactor":0.5
			}
		},
		{
			"doubleSided":true,
			"name":"Shutters",
			"pbrMetallicRoughness":{
				"baseColorFactor":[
					0.12743744254112244,
					0.2422809600830078,
					0.1356334090232849,
					1
				],
				"metallicFactor":0,
				"roughnessFactor":0.5
			}
		}
	],
	"meshes":[
		{
			"name":"Cube.002",
			"primitives":[
				{
					"attributes":{
						"POSITION":0,
						"TEXCOORD_0":1,
						"NORMAL":2
					},
					"indices":3,
					"material":0
				},
				{
					"attributes":{
						"POSITION":4,
						"TEXCOORD_0":5,
						"NORMAL":6
					},
					"indices":7,
					"material":1
				},
				{
					"attributes":{
						"POSITION":8,
						"TEXCOORD_0":9,
						"NORMAL":10
					},
					"indices":11,
					"material":2
				}
			]
		},
		{
			"name":"Banana_Banana_0",
			"primitives":[
				{
					"attributes":{
						"POSITION":12,
						"TEXCOORD_0":13,
						"TEXCOORD_1":14,
						"TEXCOORD_2":15,
						"TEXCOORD_3":16,
						"TEXCOORD_4":17,
						"TEXCOORD_5":18,
						"TEXCOORD_6":19,
						"TEXCOORD_7":20,
						"NORMAL":21
					},
					"indices":22,
					"material":3
				}
			]
		},
		{
			"name":"Banana_Banana_0.001",
			"primitives":[
				{
					"attributes":{
						"POSITION":23,
						"TEXCOORD_0":24,
						"TEXCOORD_1":25,
						"TEXCOORD_2":26,
						"TEXCOORD_3":27,
						"TEXCOORD_4":28,
						"TEXCOORD_5":29,
						"TEXCOORD_6":30,
						"TEXCOORD_7":31,
						"NORMAL":32
					},
					"indices":22,
					"material":4
				}
			]
		},
		{
			"name":"Banana_Banana_0.002",
			"primitives":[
				{
					"attributes":{
						"POSITION":33,
						"TEXCOORD_0":34,
						"TEXCOORD_1":35,
						"TEXCOORD_2":36,
						"TEXCOORD_3":37,
						"TEXCOORD_4":38,
						"TEXCOORD_5":39,
						"TEXCOORD_6":40,
						"TEXCOORD_7":41,
						"NORMAL":42
					},
					"indices":22,
					"material":5
				}
			]
		},
		{
			"name":"Cube",
			"primitives":[
				{
					"attributes":{
						"POSITION":43,
						"TEXCOORD_0":44,
						"NORMAL":45
					},
					"indices":46,
					"material":6
				},
				{
					"attributes":{
						"POSITION":47,
						"TEXCOORD_0":48,
						"NORMAL":49
					},
					"indices":50,
					"material":7
				},
				{
					"attributes":{
						"POSITION":51,
						"TEXCOORD_0":52,
						"NORMAL":53
					},
					"indices":54,
					"material":8
				},
				{
					"attributes":{
						"POSITION":55,
						"TEXCOORD_0":56,
						"NORMAL":57
					},
					"indices":58,
					"material":9
				},
				{
					"attributes":{
						"POSITION":59,
						"TEXCOORD_0":60,
						"NORMAL":61
					},
					"indices":62,
					"material":10
				}
			]
		}
	],
	"textures":[
		{
			"sampler":0,
			"source":0
		},
		{
			"sampler":0,
			"source":1
		},
		{
			"sampler":0,
			"source":2
		},
		{
			"sampler":0,
			"source":0
		},
		{
			"sampler":0,
			"source":1
		},
		{
			"sampler":0,
			"source":2
		},
		{
			"sampler":0,
			"source":0
		},
		{
			"sampler":0,
			"source":1
		},
		{
			"sampler":0,
			"source":2
		},
		{
			"sampler":0,
			"source":3
		}
	],
	"images":[
		{
			"mimeType":"image/png",
			"name":"Banana_normal",
			"uri":"/src/components/objects/Bedroom/Banana_normal.png"
		},
		{
			"mimeType":"image/png",
			"name":"Banana_baseColor",
			"uri":"/src/components/objects/Bedroom/Banana_baseColor.png"
		},
		{
			"mimeType":"image/png",
			"name":"Banana_metallicRoughness",
			"uri":"/src/components/objects/Bedroom/Banana_metallicRoughness.png"
		},
		{
			"mimeType":"image/jpeg",
			"name":"wooden_floor",
			"uri":"/src/components/objects/Bedroom/wooden_floor.jpg"
		}
	],
	"accessors":[
		{
			"bufferView":0,
			"componentType":5126,
			"count":173,
			"max":[
				1,
				1,
				1
			],
			"min":[
				-1,
				-1,
				-1
			],
			"type":"VEC3"
		},
		{
			"bufferView":1,
			"componentType":5126,
			"count":173,
			"type":"VEC2"
		},
		{
			"bufferView":2,
			"componentType":5126,
			"count":173,
			"type":"VEC3"
		},
		{
			"bufferView":3,
			"componentType":5123,
			"count":720,
			"type":"SCALAR"
		},
		{
			"bufferView":4,
			"componentType":5126,
			"count":50,
			"max":[
				-0.5,
				1.294306993484497,
				0.75
			],
			"min":[
				-0.875,
				1,
				-0.75
			],
			"type":"VEC3"
		},
		{
			"bufferView":5,
			"componentType":5126,
			"count":50,
			"type":"VEC2"
		},
		{
			"bufferView":6,
			"componentType":5126,
			"count":50,
			"type":"VEC3"
		},
		{
			"bufferView":7,
			"componentType":5123,
			"count":162,
			"type":"SCALAR"
		},
		{
			"bufferView":8,
			"componentType":5126,
			"count":108,
			"max":[
				-0.375,
				1.294306993484497,
				1
			],
			"min":[
				-1,
				-1,
				-1
			],
			"type":"VEC3"
		},
		{
			"bufferView":9,
			"componentType":5126,
			"count":108,
			"type":"VEC2"
		},
		{
			"bufferView":10,
			"componentType":5126,
			"count":108,
			"type":"VEC3"
		},
		{
			"bufferView":11,
			"componentType":5123,
			"count":294,
			"type":"SCALAR"
		},
		{
			"bufferView":12,
			"componentType":5126,
			"count":383,
			"max":[
				17.55901336669922,
				23.21997833251953,
				6.0848002433776855
			],
			"min":[
				-12.867859840393066,
				-17.046871185302734,
				-6.084798336029053
			],
			"type":"VEC3"
		},
		{
			"bufferView":13,
			"componentType":5126,
			"count":383,
			"type":"VEC2"
		},
		{
			"bufferView":14,
			"componentType":5126,
			"count":383,
			"type":"VEC2"
		},
		{
			"bufferView":15,
			"componentType":5126,
			"count":383,
			"type":"VEC2"
		},
		{
			"bufferView":16,
			"componentType":5126,
			"count":383,
			"type":"VEC2"
		},
		{
			"bufferView":17,
			"componentType":5126,
			"count":383,
			"type":"VEC2"
		},
		{
			"bufferView":18,
			"componentType":5126,
			"count":383,
			"type":"VEC2"
		},
		{
			"bufferView":19,
			"componentType":5126,
			"count":383,
			"type":"VEC2"
		},
		{
			"bufferView":20,
			"componentType":5126,
			"count":383,
			"type":"VEC2"
		},
		{
			"bufferView":21,
			"componentType":5126,
			"count":383,
			"type":"VEC3"
		},
		{
			"bufferView":22,
			"componentType":5123,
			"count":1956,
			"type":"SCALAR"
		},
		{
			"bufferView":23,
			"componentType":5126,
			"count":383,
			"max":[
				17.55901336669922,
				23.21997833251953,
				6.0848002433776855
			],
			"min":[
				-12.867859840393066,
				-17.046871185302734,
				-6.084798336029053
			],
			"type":"VEC3"
		},
		{
			"bufferView":24,
			"componentType":5126,
			"count":383,
			"type":"VEC2"
		},
		{
			"bufferView":25,
			"componentType":5126,
			"count":383,
			"type":"VEC2"
		},
		{
			"bufferView":26,
			"componentType":5126,
			"count":383,
			"type":"VEC2"
		},
		{
			"bufferView":27,
			"componentType":5126,
			"count":383,
			"type":"VEC2"
		},
		{
			"bufferView":28,
			"componentType":5126,
			"count":383,
			"type":"VEC2"
		},
		{
			"bufferView":29,
			"componentType":5126,
			"count":383,
			"type":"VEC2"
		},
		{
			"bufferView":30,
			"componentType":5126,
			"count":383,
			"type":"VEC2"
		},
		{
			"bufferView":31,
			"componentType":5126,
			"count":383,
			"type":"VEC2"
		},
		{
			"bufferView":32,
			"componentType":5126,
			"count":383,
			"type":"VEC3"
		},
		{
			"bufferView":33,
			"componentType":5126,
			"count":383,
			"max":[
				17.55901336669922,
				23.21997833251953,
				6.0848002433776855
			],
			"min":[
				-12.867859840393066,
				-17.046871185302734,
				-6.084798336029053
			],
			"type":"VEC3"
		},
		{
			"bufferView":34,
			"componentType":5126,
			"count":383,
			"type":"VEC2"
		},
		{
			"bufferView":35,
			"componentType":5126,
			"count":383,
			"type":"VEC2"
		},
		{
			"bufferView":36,
			"componentType":5126,
			"count":383,
			"type":"VEC2"
		},
		{
			"bufferView":37,
			"componentType":5126,
			"count":383,
			"type":"VEC2"
		},
		{
			"bufferView":38,
			"componentType":5126,
			"count":383,
			"type":"VEC2"
		},
		{
			"bufferView":39,
			"componentType":5126,
			"count":383,
			"type":"VEC2"
		},
		{
			"bufferView":40,
			"componentType":5126,
			"count":383,
			"type":"VEC2"
		},
		{
			"bufferView":41,
			"componentType":5126,
			"count":383,
			"type":"VEC2"
		},
		{
			"bufferView":42,
			"componentType":5126,
			"count":383,
			"type":"VEC3"
		},
		{
			"bufferView":43,
			"componentType":5126,
			"count":99,
			"max":[
				1.0091205835342407,
				0.5031664967536926,
				0.0024592888075858355
			],
			"min":[
				-1,
				-1,
				-1
			],
			"type":"VEC3"
		},
		{
			"bufferView":44,
			"componentType":5126,
			"count":99,
			"type":"VEC2"
		},
		{
			"bufferView":45,
			"componentType":5126,
			"count":99,
			"type":"VEC3"
		},
		{
			"bufferView":46,
			"componentType":5123,
			"count":312,
			"type":"SCALAR"
		},
		{
			"bufferView":47,
			"componentType":5126,
			"count":30,
			"max":[
				0.625,
				0.5000002384185791,
				-1
			],
			"min":[
				-0.625,
				-0.5000000596046448,
				-1
			],
			"type":"VEC3"
		},
		{
			"bufferView":48,
			"componentType":5126,
			"count":30,
			"type":"VEC2"
		},
		{
			"bufferView":49,
			"componentType":5126,
			"count":30,
			"type":"VEC3"
		},
		{
			"bufferView":50,
			"componentType":5123,
			"count":72,
			"type":"SCALAR"
		},
		{
			"bufferView":51,
			"componentType":5126,
			"count":51,
			"max":[
				1,
				-1,
				1
			],
			"min":[
				-1,
				-1,
				-4.470348358154297e-07
			],
			"type":"VEC3"
		},
		{
			"bufferView":52,
			"componentType":5126,
			"count":51,
			"type":"VEC2"
		},
		{
			"bufferView":53,
			"componentType":5126,
			"count":51,
			"type":"VEC3"
		},
		{
			"bufferView":54,
			"componentType":5123,
			"count":192,
			"type":"SCALAR"
		},
		{
			"bufferView":55,
			"componentType":5126,
			"count":361,
			"max":[
				1.0091205835342407,
				1,
				1
			],
			"min":[
				-1.0000600814819336,
				-1,
				-1
			],
			"type":"VEC3"
		},
		{
			"bufferView":56,
			"componentType":5126,
			"count":361,
			"type":"VEC2"
		},
		{
			"bufferView":57,
			"componentType":5126,
			"count":361,
			"type":"VEC3"
		},
		{
			"bufferView":58,
			"componentType":5123,
			"count":1038,
			"type":"SCALAR"
		},
		{
			"bufferView":59,
			"componentType":5126,
			"count":137,
			"max":[
				1,
				1,
				1
			],
			"min":[
				-1,
				-0.5002832412719727,
				-1
			],
			"type":"VEC3"
		},
		{
			"bufferView":60,
			"componentType":5126,
			"count":137,
			"type":"VEC2"
		},
		{
			"bufferView":61,
			"componentType":5126,
			"count":137,
			"type":"VEC3"
		},
		{
			"bufferView":62,
			"componentType":5123,
			"count":303,
			"type":"SCALAR"
		}
	],
	"bufferViews":[
		{
			"buffer":0,
			"byteLength":2076,
			"byteOffset":0,
			"target":34962
		},
		{
			"buffer":0,
			"byteLength":1384,
			"byteOffset":2076,
			"target":34962
		},
		{
			"buffer":0,
			"byteLength":2076,
			"byteOffset":3460,
			"target":34962
		},
		{
			"buffer":0,
			"byteLength":1440,
			"byteOffset":5536,
			"target":34963
		},
		{
			"buffer":0,
			"byteLength":600,
			"byteOffset":6976,
			"target":34962
		},
		{
			"buffer":0,
			"byteLength":400,
			"byteOffset":7576,
			"target":34962
		},
		{
			"buffer":0,
			"byteLength":600,
			"byteOffset":7976,
			"target":34962
		},
		{
			"buffer":0,
			"byteLength":324,
			"byteOffset":8576,
			"target":34963
		},
		{
			"buffer":0,
			"byteLength":1296,
			"byteOffset":8900,
			"target":34962
		},
		{
			"buffer":0,
			"byteLength":864,
			"byteOffset":10196,
			"target":34962
		},
		{
			"buffer":0,
			"byteLength":1296,
			"byteOffset":11060,
			"target":34962
		},
		{
			"buffer":0,
			"byteLength":588,
			"byteOffset":12356,
			"target":34963
		},
		{
			"buffer":0,
			"byteLength":4596,
			"byteOffset":12944,
			"target":34962
		},
		{
			"buffer":0,
			"byteLength":3064,
			"byteOffset":17540,
			"target":34962
		},
		{
			"buffer":0,
			"byteLength":3064,
			"byteOffset":20604,
			"target":34962
		},
		{
			"buffer":0,
			"byteLength":3064,
			"byteOffset":23668,
			"target":34962
		},
		{
			"buffer":0,
			"byteLength":3064,
			"byteOffset":26732,
			"target":34962
		},
		{
			"buffer":0,
			"byteLength":3064,
			"byteOffset":29796,
			"target":34962
		},
		{
			"buffer":0,
			"byteLength":3064,
			"byteOffset":32860,
			"target":34962
		},
		{
			"buffer":0,
			"byteLength":3064,
			"byteOffset":35924,
			"target":34962
		},
		{
			"buffer":0,
			"byteLength":3064,
			"byteOffset":38988,
			"target":34962
		},
		{
			"buffer":0,
			"byteLength":4596,
			"byteOffset":42052,
			"target":34962
		},
		{
			"buffer":0,
			"byteLength":3912,
			"byteOffset":46648,
			"target":34963
		},
		{
			"buffer":0,
			"byteLength":4596,
			"byteOffset":50560,
			"target":34962
		},
		{
			"buffer":0,
			"byteLength":3064,
			"byteOffset":55156,
			"target":34962
		},
		{
			"buffer":0,
			"byteLength":3064,
			"byteOffset":58220,
			"target":34962
		},
		{
			"buffer":0,
			"byteLength":3064,
			"byteOffset":61284,
			"target":34962
		},
		{
			"buffer":0,
			"byteLength":3064,
			"byteOffset":64348,
			"target":34962
		},
		{
			"buffer":0,
			"byteLength":3064,
			"byteOffset":67412,
			"target":34962
		},
		{
			"buffer":0,
			"byteLength":3064,
			"byteOffset":70476,
			"target":34962
		},
		{
			"buffer":0,
			"byteLength":3064,
			"byteOffset":73540,
			"target":34962
		},
		{
			"buffer":0,
			"byteLength":3064,
			"byteOffset":76604,
			"target":34962
		},
		{
			"buffer":0,
			"byteLength":4596,
			"byteOffset":79668,
			"target":34962
		},
		{
			"buffer":0,
			"byteLength":4596,
			"byteOffset":84264,
			"target":34962
		},
		{
			"buffer":0,
			"byteLength":3064,
			"byteOffset":88860,
			"target":34962
		},
		{
			"buffer":0,
			"byteLength":3064,
			"byteOffset":91924,
			"target":34962
		},
		{
			"buffer":0,
			"byteLength":3064,
			"byteOffset":94988,
			"target":34962
		},
		{
			"buffer":0,
			"byteLength":3064,
			"byteOffset":98052,
			"target":34962
		},
		{
			"buffer":0,
			"byteLength":3064,
			"byteOffset":101116,
			"target":34962
		},
		{
			"buffer":0,
			"byteLength":3064,
			"byteOffset":104180,
			"target":34962
		},
		{
			"buffer":0,
			"byteLength":3064,
			"byteOffset":107244,
			"target":34962
		},
		{
			"buffer":0,
			"byteLength":3064,
			"byteOffset":110308,
			"target":34962
		},
		{
			"buffer":0,
			"byteLength":4596,
			"byteOffset":113372,
			"target":34962
		},
		{
			"buffer":0,
			"byteLength":1188,
			"byteOffset":117968,
			"target":34962
		},
		{
			"buffer":0,
			"byteLength":792,
			"byteOffset":119156,
			"target":34962
		},
		{
			"buffer":0,
			"byteLength":1188,
			"byteOffset":119948,
			"target":34962
		},
		{
			"buffer":0,
			"byteLength":624,
			"byteOffset":121136,
			"target":34963
		},
		{
			"buffer":0,
			"byteLength":360,
			"byteOffset":121760,
			"target":34962
		},
		{
			"buffer":0,
			"byteLength":240,
			"byteOffset":122120,
			"target":34962
		},
		{
			"buffer":0,
			"byteLength":360,
			"byteOffset":122360,
			"target":34962
		},
		{
			"buffer":0,
			"byteLength":144,
			"byteOffset":122720,
			"target":34963
		},
		{
			"buffer":0,
			"byteLength":612,
			"byteOffset":122864,
			"target":34962
		},
		{
			"buffer":0,
			"byteLength":408,
			"byteOffset":123476,
			"target":34962
		},
		{
			"buffer":0,
			"byteLength":612,
			"byteOffset":123884,
			"target":34962
		},
		{
			"buffer":0,
			"byteLength":384,
			"byteOffset":124496,
			"target":34963
		},
		{
			"buffer":0,
			"byteLength":4332,
			"byteOffset":124880,
			"target":34962
		},
		{
			"buffer":0,
			"byteLength":2888,
			"byteOffset":129212,
			"target":34962
		},
		{
			"buffer":0,
			"byteLength":4332,
			"byteOffset":132100,
			"target":34962
		},
		{
			"buffer":0,
			"byteLength":2076,
			"byteOffset":136432,
			"target":34963
		},
		{
			"buffer":0,
			"byteLength":1644,
			"byteOffset":138508,
			"target":34962
		},
		{
			"buffer":0,
			"byteLength":1096,
			"byteOffset":140152,
			"target":34962
		},
		{
			"buffer":0,
			"byteLength":1644,
			"byteOffset":141248,
			"target":34962
		},
		{
			"buffer":0,
			"byteLength":606,
			"byteOffset":142892,
			"target":34963
		}
	],
	"samplers":[
		{
			"magFilter":9729,
			"minFilter":9987
		}
	],
	"buffers":[
		{
			"byteLength":143500,
			"uri":"/src/components/objects/Bedroom/bedroom.bin"
		}
	]
}
