{
	"asset":{
		"generator":"Khronos glTF Blender I/O v3.5.30",
		"version":"2.0"
	},
	"scene":0,
	"scenes":[
		{
			"name":"Scene",
			"nodes":[
				0
			]
		}
	],
	"nodes":[
		{
			"mesh":0,
			"name":"Cube",
			"scale":[
				1.9199999570846558,
				1.0800000429153442,
				1.3333300352096558
			]
		}
	],
	"materials":[
		{
			"doubleSided":true,
			"name":"Floor",
			"pbrMetallicRoughness":{
				"baseColorTexture":{
					"index":0
				},
				"metallicFactor":0,
				"roughnessFactor":0.5
			}
		},
		{
			"doubleSided":true,
			"name":"Back Wall",
			"pbrMetallicRoughness":{
				"baseColorFactor":[
					0.6172057390213013,
					0.7991023063659668,
					0.7912980914115906,
					1
				],
				"metallicFactor":0,
				"roughnessFactor":0.5
			}
		},
		{
			"doubleSided":true,
			"name":"Window",
			"pbrMetallicRoughness":{
				"metallicFactor":0,
				"roughnessFactor":0.5
			}
		},
		{
			"doubleSided":true,
			"name":"Side Wall & Ceiling",
			"pbrMetallicRoughness":{
				"baseColorFactor":[
					0.5209949016571045,
					0.5271146893501282,
					0.5271151661872864,
					1
				],
				"metallicFactor":0,
				"roughnessFactor":0.5
			}
		}
	],
	"meshes":[
		{
			"name":"Cube",
			"primitives":[
				{
					"attributes":{
						"POSITION":0,
						"TEXCOORD_0":1,
						"NORMAL":2
					},
					"indices":3,
					"material":0
				},
				{
					"attributes":{
						"POSITION":4,
						"TEXCOORD_0":5,
						"NORMAL":6
					},
					"indices":7,
					"material":1
				},
				{
					"attributes":{
						"POSITION":8,
						"TEXCOORD_0":9,
						"NORMAL":10
					},
					"indices":11,
					"material":2
				},
				{
					"attributes":{
						"POSITION":12,
						"TEXCOORD_0":13,
						"NORMAL":14
					},
					"indices":15,
					"material":3
				}
			]
		}
	],
	"textures":[
		{
			"sampler":0,
			"source":0
		}
	],
	"images":[
		{
			"mimeType":"image/jpeg",
			"name":"wooden_floor",
			"uri":"/src/components/objects/Bedroom/wooden_floor.jpg"
		}
	],
	"accessors":[
		{
			"bufferView":0,
			"componentType":5126,
			"count":25,
			"max":[
				1,
				-1,
				1
			],
			"min":[
				-1,
				-1,
				-1
			],
			"type":"VEC3"
		},
		{
			"bufferView":1,
			"componentType":5126,
			"count":25,
			"type":"VEC2"
		},
		{
			"bufferView":2,
			"componentType":5126,
			"count":25,
			"type":"VEC3"
		},
		{
			"bufferView":3,
			"componentType":5123,
			"count":96,
			"type":"SCALAR"
		},
		{
			"bufferView":4,
			"componentType":5126,
			"count":24,
			"max":[
				1,
				1,
				-1
			],
			"min":[
				-1,
				-1,
				-1
			],
			"type":"VEC3"
		},
		{
			"bufferView":5,
			"componentType":5126,
			"count":24,
			"type":"VEC2"
		},
		{
			"bufferView":6,
			"componentType":5126,
			"count":24,
			"type":"VEC3"
		},
		{
			"bufferView":7,
			"componentType":5123,
			"count":72,
			"type":"SCALAR"
		},
		{
			"bufferView":8,
			"componentType":5126,
			"count":9,
			"max":[
				0.5,
				0.5000002384185791,
				-1
			],
			"min":[
				-0.5,
				-0.5000001192092896,
				-1
			],
			"type":"VEC3"
		},
		{
			"bufferView":9,
			"componentType":5126,
			"count":9,
			"type":"VEC2"
		},
		{
			"bufferView":10,
			"componentType":5126,
			"count":9,
			"type":"VEC3"
		},
		{
			"bufferView":11,
			"componentType":5123,
			"count":24,
			"type":"SCALAR"
		},
		{
			"bufferView":12,
			"componentType":5126,
			"count":63,
			"max":[
				1,
				1,
				1
			],
			"min":[
				-1,
				-1,
				-1
			],
			"type":"VEC3"
		},
		{
			"bufferView":13,
			"componentType":5126,
			"count":63,
			"type":"VEC2"
		},
		{
			"bufferView":14,
			"componentType":5126,
			"count":63,
			"type":"VEC3"
		},
		{
			"bufferView":15,
			"componentType":5123,
			"count":201,
			"type":"SCALAR"
		}
	],
	"bufferViews":[
		{
			"buffer":0,
			"byteLength":300,
			"byteOffset":0,
			"target":34962
		},
		{
			"buffer":0,
			"byteLength":200,
			"byteOffset":300,
			"target":34962
		},
		{
			"buffer":0,
			"byteLength":300,
			"byteOffset":500,
			"target":34962
		},
		{
			"buffer":0,
			"byteLength":192,
			"byteOffset":800,
			"target":34963
		},
		{
			"buffer":0,
			"byteLength":288,
			"byteOffset":992,
			"target":34962
		},
		{
			"buffer":0,
			"byteLength":192,
			"byteOffset":1280,
			"target":34962
		},
		{
			"buffer":0,
			"byteLength":288,
			"byteOffset":1472,
			"target":34962
		},
		{
			"buffer":0,
			"byteLength":144,
			"byteOffset":1760,
			"target":34963
		},
		{
			"buffer":0,
			"byteLength":108,
			"byteOffset":1904,
			"target":34962
		},
		{
			"buffer":0,
			"byteLength":72,
			"byteOffset":2012,
			"target":34962
		},
		{
			"buffer":0,
			"byteLength":108,
			"byteOffset":2084,
			"target":34962
		},
		{
			"buffer":0,
			"byteLength":48,
			"byteOffset":2192,
			"target":34963
		},
		{
			"buffer":0,
			"byteLength":756,
			"byteOffset":2240,
			"target":34962
		},
		{
			"buffer":0,
			"byteLength":504,
			"byteOffset":2996,
			"target":34962
		},
		{
			"buffer":0,
			"byteLength":756,
			"byteOffset":3500,
			"target":34962
		},
		{
			"buffer":0,
			"byteLength":402,
			"byteOffset":4256,
			"target":34963
		}
	],
	"samplers":[
		{
			"magFilter":9729,
			"minFilter":9987
		}
	],
	"buffers":[
		{
			"byteLength":4660,
			"uri":"/src/components/objects/Bedroom/bedroom.bin"
		}
	]
}
