{
	"asset":{
		"generator":"Khronos glTF Blender I/O v3.5.30",
		"version":"2.0"
	},
	"scene":0,
	"scenes":[
		{
			"name":"Scene",
			"nodes":[
				2,
				3
			]
		}
	],
	"nodes":[
		{
			"mesh":0,
			"name":"DarkGreenTree_mergedObject_0"
		},
		{
			"mesh":1,
			"name":"DarkGreenTree_mergedObject_1"
		},
		{
			"children":[
				0,
				1
			],
			"name":"DarkGreenTree_mergedObject",
			"rotation":[
				-0.5,
				-0.5,
				-0.5,
				0.5
			],
			"scale":[
				0.5,
				0.5,
				0.5
			],
			"translation":[
				7.169999599456787,
				0.44999998807907104,
				-0.8600000143051147
			]
		},
		{
			"mesh":2,
			"name":"Cube",
			"scale":[
				1.9199999570846558,
				1.0800000429153442,
				1.3333300352096558
			]
		}
	],
	"materials":[
		{
			"doubleSided":true,
			"name":"BakedCycles.001",
			"pbrMetallicRoughness":{}
		},
		{
			"doubleSided":true,
			"name":"TreeDarkGreen",
			"pbrMetallicRoughness":{}
		},
		{
			"doubleSided":true,
			"name":"Back Wall",
			"pbrMetallicRoughness":{
				"baseColorTexture":{
					"index":0
				},
				"metallicFactor":0,
				"roughnessFactor":0.5
			}
		},
		{
			"doubleSided":true,
			"name":"Floor",
			"pbrMetallicRoughness":{
				"baseColorFactor":[
					0.045186128467321396,
					0.138431578874588,
					0.0003035672998521477,
					1
				],
				"metallicFactor":0,
				"roughnessFactor":0.5
			}
		},
		{
			"doubleSided":true,
			"name":"Ceiling",
			"pbrMetallicRoughness":{
				"baseColorFactor":[
					1,
					0.991101086139679,
					0.6724433898925781,
					1
				],
				"metallicFactor":0,
				"roughnessFactor":0.5
			}
		}
	],
	"meshes":[
		{
			"name":"DarkGreenTree_mergedObject_0",
			"primitives":[
				{
					"attributes":{
						"COLOR_0":0,
						"POSITION":1,
						"TEXCOORD_0":2,
						"NORMAL":3
					},
					"indices":4,
					"material":0
				}
			]
		},
		{
			"name":"DarkGreenTree_mergedObject_1",
			"primitives":[
				{
					"attributes":{
						"POSITION":5,
						"TEXCOORD_0":6,
						"NORMAL":7
					},
					"indices":8,
					"material":1
				}
			]
		},
		{
			"name":"Cube",
			"primitives":[
				{
					"attributes":{
						"POSITION":9,
						"TEXCOORD_0":10,
						"NORMAL":11
					},
					"indices":12,
					"material":2
				},
				{
					"attributes":{
						"POSITION":13,
						"TEXCOORD_0":14,
						"NORMAL":15
					},
					"indices":16,
					"material":3
				},
				{
					"attributes":{
						"POSITION":17,
						"TEXCOORD_0":18,
						"NORMAL":19
					},
					"indices":20,
					"material":4
				}
			]
		}
	],
	"textures":[
		{
			"sampler":0,
			"source":0
		}
	],
	"images":[
		{
			"mimeType":"image/png",
			"name":"Backgrounds_5",
			"uri":"/src/components/objects/Forest/Backgrounds_5.png"
		}
	],
	"accessors":[
		{
			"bufferView":0,
			"componentType":5123,
			"count":2032,
			"normalized":true,
			"type":"VEC4"
		},
		{
			"bufferView":1,
			"componentType":5126,
			"count":2032,
			"max":[
				2.385590076446533,
				23.585620880126953,
				2.1454200744628906
			],
			"min":[
				-1.399899959564209,
				-24.19952964782715,
				-3.1126999855041504
			],
			"type":"VEC3"
		},
		{
			"bufferView":2,
			"componentType":5126,
			"count":2032,
			"type":"VEC2"
		},
		{
			"bufferView":3,
			"componentType":5126,
			"count":2032,
			"type":"VEC3"
		},
		{
			"bufferView":4,
			"componentType":5123,
			"count":2634,
			"type":"SCALAR"
		},
		{
			"bufferView":5,
			"componentType":5126,
			"count":29134,
			"max":[
				3.7721500396728516,
				17.691669464111328,
				3.4310500621795654
			],
			"min":[
				-2.7046499252319336,
				-44.896759033203125,
				-2.8141400814056396
			],
			"type":"VEC3"
		},
		{
			"bufferView":6,
			"componentType":5126,
			"count":29134,
			"type":"VEC2"
		},
		{
			"bufferView":7,
			"componentType":5126,
			"count":29134,
			"type":"VEC3"
		},
		{
			"bufferView":8,
			"componentType":5123,
			"count":120816,
			"type":"SCALAR"
		},
		{
			"bufferView":9,
			"componentType":5126,
			"count":75,
			"max":[
				1,
				1,
				1
			],
			"min":[
				-1,
				-1,
				-1
			],
			"type":"VEC3"
		},
		{
			"bufferView":10,
			"componentType":5126,
			"count":75,
			"type":"VEC2"
		},
		{
			"bufferView":11,
			"componentType":5126,
			"count":75,
			"type":"VEC3"
		},
		{
			"bufferView":12,
			"componentType":5123,
			"count":264,
			"type":"SCALAR"
		},
		{
			"bufferView":13,
			"componentType":5126,
			"count":25,
			"max":[
				1,
				-1,
				1
			],
			"min":[
				-1,
				-1,
				-1
			],
			"type":"VEC3"
		},
		{
			"bufferView":14,
			"componentType":5126,
			"count":25,
			"type":"VEC2"
		},
		{
			"bufferView":15,
			"componentType":5126,
			"count":25,
			"type":"VEC3"
		},
		{
			"bufferView":16,
			"componentType":5123,
			"count":96,
			"type":"SCALAR"
		},
		{
			"bufferView":17,
			"componentType":5126,
			"count":13,
			"max":[
				1,
				1,
				1
			],
			"min":[
				-1,
				1,
				-1
			],
			"type":"VEC3"
		},
		{
			"bufferView":18,
			"componentType":5126,
			"count":13,
			"type":"VEC2"
		},
		{
			"bufferView":19,
			"componentType":5126,
			"count":13,
			"type":"VEC3"
		},
		{
			"bufferView":20,
			"componentType":5123,
			"count":33,
			"type":"SCALAR"
		}
	],
	"bufferViews":[
		{
			"buffer":0,
			"byteLength":16256,
			"byteOffset":0,
			"target":34962
		},
		{
			"buffer":0,
			"byteLength":24384,
			"byteOffset":16256,
			"target":34962
		},
		{
			"buffer":0,
			"byteLength":16256,
			"byteOffset":40640,
			"target":34962
		},
		{
			"buffer":0,
			"byteLength":24384,
			"byteOffset":56896,
			"target":34962
		},
		{
			"buffer":0,
			"byteLength":5268,
			"byteOffset":81280,
			"target":34963
		},
		{
			"buffer":0,
			"byteLength":349608,
			"byteOffset":86548,
			"target":34962
		},
		{
			"buffer":0,
			"byteLength":233072,
			"byteOffset":436156,
			"target":34962
		},
		{
			"buffer":0,
			"byteLength":349608,
			"byteOffset":669228,
			"target":34962
		},
		{
			"buffer":0,
			"byteLength":241632,
			"byteOffset":1018836,
			"target":34963
		},
		{
			"buffer":0,
			"byteLength":900,
			"byteOffset":1260468,
			"target":34962
		},
		{
			"buffer":0,
			"byteLength":600,
			"byteOffset":1261368,
			"target":34962
		},
		{
			"buffer":0,
			"byteLength":900,
			"byteOffset":1261968,
			"target":34962
		},
		{
			"buffer":0,
			"byteLength":528,
			"byteOffset":1262868,
			"target":34963
		},
		{
			"buffer":0,
			"byteLength":300,
			"byteOffset":1263396,
			"target":34962
		},
		{
			"buffer":0,
			"byteLength":200,
			"byteOffset":1263696,
			"target":34962
		},
		{
			"buffer":0,
			"byteLength":300,
			"byteOffset":1263896,
			"target":34962
		},
		{
			"buffer":0,
			"byteLength":192,
			"byteOffset":1264196,
			"target":34963
		},
		{
			"buffer":0,
			"byteLength":156,
			"byteOffset":1264388,
			"target":34962
		},
		{
			"buffer":0,
			"byteLength":104,
			"byteOffset":1264544,
			"target":34962
		},
		{
			"buffer":0,
			"byteLength":156,
			"byteOffset":1264648,
			"target":34962
		},
		{
			"buffer":0,
			"byteLength":66,
			"byteOffset":1264804,
			"target":34963
		}
	],
	"samplers":[
		{
			"magFilter":9729,
			"minFilter":9987
		}
	],
	"buffers":[
		{
			"byteLength":1264872,
			"uri":"/src/components/objects/Forest/forest.bin"
		}
	]
}
