{
	"asset":{
		"generator":"Khronos glTF Blender I/O v3.5.30",
		"version":"2.0"
	},
	"scene":0,
	"scenes":[
		{
			"name":"Scene",
			"nodes":[
				0
			]
		}
	],
	"nodes":[
		{
			"mesh":0,
			"name":"Cube",
			"scale":[
				8,
				1.100000023841858,
				3.799999952316284
			]
		}
	],
	"materials":[
		{
			"doubleSided":true,
			"name":"Bedspread",
			"pbrMetallicRoughness":{
				"baseColorFactor":[
					0.20507828891277313,
					0.5840782523155212,
					0.11193255335092545,
					1
				],
				"metallicFactor":0,
				"roughnessFactor":0.5
			}
		},
		{
			"doubleSided":true,
			"name":"Pillow",
			"pbrMetallicRoughness":{
				"baseColorFactor":[
					0.8275567293167114,
					0.8275567293167114,
					0.8275567293167114,
					1
				],
				"metallicFactor":0,
				"roughnessFactor":0.5
			}
		},
		{
			"doubleSided":true,
			"name":"Bedsheet",
			"pbrMetallicRoughness":{
				"baseColorFactor":[
					0.5595998167991638,
					0.5595998167991638,
					0.5595998167991638,
					1
				],
				"metallicFactor":0,
				"roughnessFactor":0.5
			}
		}
	],
	"meshes":[
		{
			"name":"Cube",
			"primitives":[
				{
					"attributes":{
						"POSITION":0,
						"TEXCOORD_0":1,
						"NORMAL":2
					},
					"indices":3,
					"material":0
				},
				{
					"attributes":{
						"POSITION":4,
						"TEXCOORD_0":5,
						"NORMAL":6
					},
					"indices":7,
					"material":1
				},
				{
					"attributes":{
						"POSITION":8,
						"TEXCOORD_0":9,
						"NORMAL":10
					},
					"indices":11,
					"material":2
				}
			]
		}
	],
	"accessors":[
		{
			"bufferView":0,
			"componentType":5126,
			"count":173,
			"max":[
				1,
				1,
				1
			],
			"min":[
				-1,
				-1,
				-1
			],
			"type":"VEC3"
		},
		{
			"bufferView":1,
			"componentType":5126,
			"count":173,
			"type":"VEC2"
		},
		{
			"bufferView":2,
			"componentType":5126,
			"count":173,
			"type":"VEC3"
		},
		{
			"bufferView":3,
			"componentType":5123,
			"count":720,
			"type":"SCALAR"
		},
		{
			"bufferView":4,
			"componentType":5126,
			"count":50,
			"max":[
				-0.5,
				1.294306993484497,
				0.75
			],
			"min":[
				-0.875,
				1,
				-0.75
			],
			"type":"VEC3"
		},
		{
			"bufferView":5,
			"componentType":5126,
			"count":50,
			"type":"VEC2"
		},
		{
			"bufferView":6,
			"componentType":5126,
			"count":50,
			"type":"VEC3"
		},
		{
			"bufferView":7,
			"componentType":5123,
			"count":162,
			"type":"SCALAR"
		},
		{
			"bufferView":8,
			"componentType":5126,
			"count":108,
			"max":[
				-0.375,
				1.294306993484497,
				1
			],
			"min":[
				-1,
				-1,
				-1
			],
			"type":"VEC3"
		},
		{
			"bufferView":9,
			"componentType":5126,
			"count":108,
			"type":"VEC2"
		},
		{
			"bufferView":10,
			"componentType":5126,
			"count":108,
			"type":"VEC3"
		},
		{
			"bufferView":11,
			"componentType":5123,
			"count":294,
			"type":"SCALAR"
		}
	],
	"bufferViews":[
		{
			"buffer":0,
			"byteLength":2076,
			"byteOffset":0,
			"target":34962
		},
		{
			"buffer":0,
			"byteLength":1384,
			"byteOffset":2076,
			"target":34962
		},
		{
			"buffer":0,
			"byteLength":2076,
			"byteOffset":3460,
			"target":34962
		},
		{
			"buffer":0,
			"byteLength":1440,
			"byteOffset":5536,
			"target":34963
		},
		{
			"buffer":0,
			"byteLength":600,
			"byteOffset":6976,
			"target":34962
		},
		{
			"buffer":0,
			"byteLength":400,
			"byteOffset":7576,
			"target":34962
		},
		{
			"buffer":0,
			"byteLength":600,
			"byteOffset":7976,
			"target":34962
		},
		{
			"buffer":0,
			"byteLength":324,
			"byteOffset":8576,
			"target":34963
		},
		{
			"buffer":0,
			"byteLength":1296,
			"byteOffset":8900,
			"target":34962
		},
		{
			"buffer":0,
			"byteLength":864,
			"byteOffset":10196,
			"target":34962
		},
		{
			"buffer":0,
			"byteLength":1296,
			"byteOffset":11060,
			"target":34962
		},
		{
			"buffer":0,
			"byteLength":588,
			"byteOffset":12356,
			"target":34963
		}
	],
	"buffers":[
		{
			"byteLength":12944,
			"uri":"/src/components/objects/Bed/bed.bin"
		}
	]
}
