{
	"asset":{
		"generator":"Khronos glTF Blender I/O v3.5.30",
		"version":"2.0"
	},
	"scene":0,
	"scenes":[
		{
			"name":"Scene",
			"nodes":[
				9,
				10
			]
		}
	],
	"nodes":[
		{
			"mesh":0,
			"name":"RubberDuckBeak_RubberDuckBeak_0"
		},
		{
			"children":[
				0
			],
			"name":"RubberDuckBeak",
			"rotation":[
				-0.70710688829422,
				0,
				0,
				0.7071066498756409
			],
			"scale":[
				129.8892364501953,
				129.88922119140625,
				129.88922119140625
			],
			"translation":[
				144.4352569580078,
				197.9506378173828,
				9.643987141316757e-05
			]
		},
		{
			"mesh":1,
			"name":"RubberDuckBody_RubberDuck_0"
		},
		{
			"children":[
				2
			],
			"name":"RubberDuckBody",
			"rotation":[
				-0.7071069478988647,
				0,
				0,
				0.7071066498756409
			],
			"scale":[
				100.00000762939453,
				100.00000762939453,
				100.00000762939453
			],
			"translation":[
				-1.4066696166992188e-05,
				4.76837158203125e-06,
				6.046169437468052e-05
			]
		},
		{
			"mesh":2,
			"name":"RubberDuckEyes_RubberDuckEyeBlack_0"
		},
		{
			"mesh":3,
			"name":"RubberDuckEyes_RubberDuckEyeWhite_0"
		},
		{
			"children":[
				4,
				5
			],
			"name":"RubberDuckEyes",
			"rotation":[
				-0.70710688829422,
				0,
				0,
				0.7071066498756409
			],
			"scale":[
				129.8892364501953,
				129.88922119140625,
				129.88922119140625
			],
			"translation":[
				153.031005859375,
				193.68927001953125,
				8.109108603093773e-05
			]
		},
		{
			"children":[
				1,
				3,
				6
			],
			"name":"RootNode",
			"translation":[
				-1.4066696166992188e-05,
				4.76837158203125e-06,
				6.046169437468052e-05
			]
		},
		{
			"children":[
				7
			],
			"name":"483c0a06b766418d8253066e0b57992c.fbx",
			"rotation":[
				0.70710688829422,
				0,
				0,
				0.7071066498756409
			],
			"scale":[
				0.010000000707805157,
				0.010000001639127731,
				0.010000001639127731
			]
		},
		{
			"children":[
				8
			],
			"name":"Sketchfab_model",
			"rotation":[
				-0.6347296833992004,
				-0.3678826093673706,
				-0.3116380572319031,
				0.6038728952407837
			],
			"scale":[
				0.36235910654067993,
				0.36235910654067993,
				0.36235910654067993
			],
			"translation":[
				-0.9299999475479126,
				-0.07999999821186066,
				-2.690000057220459
			]
		},
		{
			"mesh":4,
			"name":"Cylinder",
			"rotation":[
				0,
				0.7071068286895752,
				0,
				0.7071068286895752
			],
			"scale":[
				0.9300000071525574,
				0.75,
				0.949999988079071
			]
		}
	],
	"materials":[
		{
			"doubleSided":true,
			"name":"RubberDuckBeak",
			"pbrMetallicRoughness":{
				"baseColorFactor":[
					0.800000011920929,
					0.21050399541854858,
					0.04512469843029976,
					1
				],
				"metallicFactor":0,
				"roughnessFactor":0.5
			}
		},
		{
			"doubleSided":true,
			"name":"RubberDuck",
			"pbrMetallicRoughness":{
				"baseColorFactor":[
					0.800000011920929,
					0.4226759970188141,
					0.059393201023340225,
					1
				],
				"metallicFactor":0,
				"roughnessFactor":0.5
			}
		},
		{
			"doubleSided":true,
			"name":"RubberDuckEyeBlack",
			"pbrMetallicRoughness":{
				"baseColorFactor":[
					0,
					0,
					0,
					1
				],
				"metallicFactor":0,
				"roughnessFactor":0.5
			}
		},
		{
			"doubleSided":true,
			"name":"RubberDuckEyeWhite",
			"pbrMetallicRoughness":{
				"metallicFactor":0,
				"roughnessFactor":0.5
			}
		},
		{
			"doubleSided":true,
			"name":"Pool",
			"pbrMetallicRoughness":{
				"baseColorFactor":[
					0.015590024180710316,
					0.549450695514679,
					0.8000000715255737,
					1
				],
				"metallicFactor":0,
				"roughnessFactor":0.5
			}
		},
		{
			"doubleSided":true,
			"name":"Water",
			"pbrMetallicRoughness":{
				"baseColorFactor":[
					0.10012073069810867,
					0.21686714887619019,
					1,
					1
				],
				"metallicFactor":0,
				"roughnessFactor":0.5
			}
		}
	],
	"meshes":[
		{
			"name":"RubberDuckBeak_RubberDuckBeak_0",
			"primitives":[
				{
					"attributes":{
						"POSITION":0,
						"TEXCOORD_0":1,
						"NORMAL":2
					},
					"indices":3,
					"material":0
				}
			]
		},
		{
			"name":"RubberDuckBody_RubberDuck_0",
			"primitives":[
				{
					"attributes":{
						"POSITION":4,
						"TEXCOORD_0":5,
						"NORMAL":6
					},
					"indices":7,
					"material":1
				}
			]
		},
		{
			"name":"RubberDuckEyes_RubberDuckEyeBlack_0",
			"primitives":[
				{
					"attributes":{
						"POSITION":8,
						"TEXCOORD_0":9,
						"NORMAL":10
					},
					"indices":11,
					"material":2
				}
			]
		},
		{
			"name":"RubberDuckEyes_RubberDuckEyeWhite_0",
			"primitives":[
				{
					"attributes":{
						"POSITION":12,
						"TEXCOORD_0":13,
						"NORMAL":14
					},
					"indices":11,
					"material":3
				}
			]
		},
		{
			"name":"Cylinder",
			"primitives":[
				{
					"attributes":{
						"POSITION":15,
						"TEXCOORD_0":16,
						"NORMAL":17
					},
					"indices":18,
					"material":4
				},
				{
					"attributes":{
						"POSITION":19,
						"TEXCOORD_0":20,
						"NORMAL":21
					},
					"indices":22,
					"material":5
				}
			]
		}
	],
	"accessors":[
		{
			"bufferView":0,
			"componentType":5126,
			"count":269,
			"max":[
				0.5044400095939636,
				0.29223892092704773,
				-0.0034695975482463837
			],
			"min":[
				0.13996227085590363,
				-0.29223889112472534,
				-0.25554439425468445
			],
			"type":"VEC3"
		},
		{
			"bufferView":1,
			"componentType":5126,
			"count":269,
			"type":"VEC2"
		},
		{
			"bufferView":2,
			"componentType":5126,
			"count":269,
			"type":"VEC3"
		},
		{
			"bufferView":3,
			"componentType":5123,
			"count":984,
			"type":"SCALAR"
		},
		{
			"bufferView":4,
			"componentType":5126,
			"count":367,
			"max":[
				1.852514386177063,
				1.227003812789917,
				2.768024444580078
			],
			"min":[
				-1.6076165437698364,
				-1.227003812789917,
				-0.5412766337394714
			],
			"type":"VEC3"
		},
		{
			"bufferView":5,
			"componentType":5126,
			"count":367,
			"type":"VEC2"
		},
		{
			"bufferView":6,
			"componentType":5126,
			"count":367,
			"type":"VEC3"
		},
		{
			"bufferView":7,
			"componentType":5123,
			"count":1632,
			"type":"SCALAR"
		},
		{
			"bufferView":8,
			"componentType":5126,
			"count":192,
			"max":[
				0.24802161753177643,
				0.2638503611087799,
				0.27680832147598267
			],
			"min":[
				0.171197310090065,
				-0.2638503611087799,
				0.11820364743471146
			],
			"type":"VEC3"
		},
		{
			"bufferView":9,
			"componentType":5126,
			"count":192,
			"type":"VEC2"
		},
		{
			"bufferView":10,
			"componentType":5126,
			"count":192,
			"type":"VEC3"
		},
		{
			"bufferView":11,
			"componentType":5123,
			"count":288,
			"type":"SCALAR"
		},
		{
			"bufferView":12,
			"componentType":5126,
			"count":192,
			"max":[
				0.24193325638771057,
				0.28609371185302734,
				0.3162264823913574
			],
			"min":[
				0.11765800416469574,
				-0.28609374165534973,
				0.05965881049633026
			],
			"type":"VEC3"
		},
		{
			"bufferView":13,
			"componentType":5126,
			"count":192,
			"type":"VEC2"
		},
		{
			"bufferView":14,
			"componentType":5126,
			"count":192,
			"type":"VEC3"
		},
		{
			"bufferView":15,
			"componentType":5126,
			"count":770,
			"max":[
				5,
				1.5,
				5
			],
			"min":[
				-5,
				-1.5,
				-5
			],
			"type":"VEC3"
		},
		{
			"bufferView":16,
			"componentType":5126,
			"count":770,
			"type":"VEC2"
		},
		{
			"bufferView":17,
			"componentType":5126,
			"count":770,
			"type":"VEC3"
		},
		{
			"bufferView":18,
			"componentType":5123,
			"count":1524,
			"type":"SCALAR"
		},
		{
			"bufferView":19,
			"componentType":5126,
			"count":128,
			"max":[
				5,
				0,
				5
			],
			"min":[
				-5,
				-0.9630576968193054,
				-5
			],
			"type":"VEC3"
		},
		{
			"bufferView":20,
			"componentType":5126,
			"count":128,
			"type":"VEC2"
		},
		{
			"bufferView":21,
			"componentType":5126,
			"count":128,
			"type":"VEC3"
		},
		{
			"bufferView":22,
			"componentType":5123,
			"count":360,
			"type":"SCALAR"
		}
	],
	"bufferViews":[
		{
			"buffer":0,
			"byteLength":3228,
			"byteOffset":0,
			"target":34962
		},
		{
			"buffer":0,
			"byteLength":2152,
			"byteOffset":3228,
			"target":34962
		},
		{
			"buffer":0,
			"byteLength":3228,
			"byteOffset":5380,
			"target":34962
		},
		{
			"buffer":0,
			"byteLength":1968,
			"byteOffset":8608,
			"target":34963
		},
		{
			"buffer":0,
			"byteLength":4404,
			"byteOffset":10576,
			"target":34962
		},
		{
			"buffer":0,
			"byteLength":2936,
			"byteOffset":14980,
			"target":34962
		},
		{
			"buffer":0,
			"byteLength":4404,
			"byteOffset":17916,
			"target":34962
		},
		{
			"buffer":0,
			"byteLength":3264,
			"byteOffset":22320,
			"target":34963
		},
		{
			"buffer":0,
			"byteLength":2304,
			"byteOffset":25584,
			"target":34962
		},
		{
			"buffer":0,
			"byteLength":1536,
			"byteOffset":27888,
			"target":34962
		},
		{
			"buffer":0,
			"byteLength":2304,
			"byteOffset":29424,
			"target":34962
		},
		{
			"buffer":0,
			"byteLength":576,
			"byteOffset":31728,
			"target":34963
		},
		{
			"buffer":0,
			"byteLength":2304,
			"byteOffset":32304,
			"target":34962
		},
		{
			"buffer":0,
			"byteLength":1536,
			"byteOffset":34608,
			"target":34962
		},
		{
			"buffer":0,
			"byteLength":2304,
			"byteOffset":36144,
			"target":34962
		},
		{
			"buffer":0,
			"byteLength":9240,
			"byteOffset":38448,
			"target":34962
		},
		{
			"buffer":0,
			"byteLength":6160,
			"byteOffset":47688,
			"target":34962
		},
		{
			"buffer":0,
			"byteLength":9240,
			"byteOffset":53848,
			"target":34962
		},
		{
			"buffer":0,
			"byteLength":3048,
			"byteOffset":63088,
			"target":34963
		},
		{
			"buffer":0,
			"byteLength":1536,
			"byteOffset":66136,
			"target":34962
		},
		{
			"buffer":0,
			"byteLength":1024,
			"byteOffset":67672,
			"target":34962
		},
		{
			"buffer":0,
			"byteLength":1536,
			"byteOffset":68696,
			"target":34962
		},
		{
			"buffer":0,
			"byteLength":720,
			"byteOffset":70232,
			"target":34963
		}
	],
	"buffers":[
		{
			"byteLength":70952,
			"uri":"/src/components/objects/Bathtub/bathtub.bin"
		}
	]
}
