{
	"asset":{
		"generator":"Khronos glTF Blender I/O v3.5.30",
		"version":"2.0"
	},
	"extensionsUsed":[
		"KHR_materials_emissive_strength"
	],
	"scene":0,
	"scenes":[
		{
			"name":"Scene",
			"nodes":[
				17,
				20,
				27,
				28
			]
		}
	],
	"nodes":[
		{
			"name":"Object_7"
		},
		{
			"children":[
				0
			],
			"name":"Camera.001",
			"rotation":[
				-0.2125573307275772,
				0.9047969579696655,
				-0.08438929170370102,
				0.35922178626060486
			],
			"scale":[
				99.99999237060547,
				100.00000762939453,
				99.99999237060547
			],
			"translation":[
				735.8892211914062,
				495.8309326171875,
				692.5791015625
			]
		},
		{
			"mesh":0,
			"name":"Circle_Material.003_0"
		},
		{
			"children":[
				2
			],
			"name":"Circle",
			"rotation":[
				-0.70710688829422,
				0,
				0,
				0.7071066498756409
			],
			"scale":[
				100,
				99.99999237060547,
				99.99999237060547
			],
			"translation":[
				6.103515625e-05,
				0,
				0
			]
		},
		{
			"mesh":1,
			"name":"Circle.001_Material_0"
		},
		{
			"children":[
				4
			],
			"name":"Circle.001",
			"scale":[
				42.173709869384766,
				42.17371368408203,
				42.17371368408203
			],
			"translation":[
				6.103515625e-05,
				237.99786376953125,
				-92.160888671875
			]
		},
		{
			"mesh":2,
			"name":"Circle.002_Material_0"
		},
		{
			"children":[
				6
			],
			"name":"Circle.002",
			"rotation":[
				-0.5,
				0.5,
				-0.5,
				0.5
			],
			"scale":[
				76.1876220703125,
				76.1876220703125,
				76.18761444091797
			],
			"translation":[
				69.437255859375,
				242.26361083984375,
				0
			]
		},
		{
			"mesh":3,
			"name":"Cylinder.001_Material_0",
			"translation":[
				2.8311942514847033e-06,
				0,
				0
			]
		},
		{
			"children":[
				8
			],
			"name":"Cylinder.001",
			"rotation":[
				-0.6981050372123718,
				-0.1124696135520935,
				-0.11246965080499649,
				0.698104977607727
			],
			"scale":[
				10.140297889709473,
				10.140298843383789,
				15.719649314880371
			],
			"translation":[
				-29.8109130859375,
				27.0693359375,
				-103.85955810546875
			]
		},
		{
			"mesh":4,
			"name":"Cylinder.002_Material_0",
			"translation":[
				2.372350536461454e-06,
				3.902744538208935e-06,
				0
			]
		},
		{
			"children":[
				10
			],
			"name":"Cylinder.002",
			"rotation":[
				-0.6981050372123718,
				-0.11246960610151291,
				-0.1124696284532547,
				0.698104977607727
			],
			"scale":[
				10.947139739990234,
				10.94714069366455,
				25.701915740966797
			],
			"translation":[
				-29.8109130859375,
				329.765380859375,
				-112.6058349609375
			]
		},
		{
			"name":"Object_5"
		},
		{
			"children":[
				12
			],
			"name":"Object_4",
			"rotation":[
				0.7071068286895752,
				0,
				0,
				0.7071067094802856
			]
		},
		{
			"children":[
				13
			],
			"name":"Light.001",
			"rotation":[
				0.16907571256160736,
				0.7558803558349609,
				-0.27217134833335876,
				0.570947527885437
			],
			"scale":[
				99.99999237060547,
				99.99999237060547,
				100
			],
			"translation":[
				407.6246032714844,
				590.38623046875,
				-100.54541015625
			]
		},
		{
			"children":[
				1,
				3,
				5,
				7,
				9,
				11,
				14
			],
			"name":"RootNode",
			"translation":[
				6.103515625e-05,
				0,
				0
			]
		},
		{
			"children":[
				15
			],
			"name":"288fbb7e5f464650bdd683a8f93d73dc.fbx",
			"rotation":[
				0.70710688829422,
				0,
				0,
				0.7071066498756409
			],
			"scale":[
				0.009999999776482582,
				0.010000001639127731,
				0.010000001639127731
			]
		},
		{
			"children":[
				16
			],
			"name":"Sketchfab_model",
			"rotation":[
				-0.70710688829422,
				0,
				0,
				0.7071066498756409
			],
			"scale":[
				0.15000000596046448,
				0.15000002086162567,
				0.15000002086162567
			],
			"translation":[
				-1.2000000476837158,
				-1.0199999809265137,
				-0.625
			]
		},
		{
			"mesh":5,
			"name":"Object_2",
			"translation":[
				3.814697265625e-06,
				0,
				0
			]
		},
		{
			"children":[
				18
			],
			"name":"c2cfdf559cb44c8fb8c13f8f13d12748.obj.cleaner.materialmerger.gle",
			"translation":[
				3.814697265625e-06,
				0,
				0
			]
		},
		{
			"children":[
				19
			],
			"name":"Sketchfab_model.001",
			"rotation":[
				-0.70710688829422,
				0,
				0,
				0.7071066498756409
			],
			"scale":[
				0.07500000298023224,
				0.07500001043081284,
				0.07500001043081284
			],
			"translation":[
				1.9699996709823608,
				-0.7199999690055847,
				-0.6899999380111694
			]
		},
		{
			"name":"Cylinder_lamp_0",
			"scale":[
				1.1399999856948853,
				1,
				1
			]
		},
		{
			"mesh":6,
			"name":"Cylinder_lamp_0.001"
		},
		{
			"mesh":7,
			"name":"Cylinder_light_0"
		},
		{
			"children":[
				21,
				22,
				23
			],
			"name":"Cylinder",
			"rotation":[
				-0.70710688829422,
				0,
				0,
				0.7071066498756409
			],
			"scale":[
				7.710743427276611,
				7.710743427276611,
				27.07211685180664
			],
			"translation":[
				-263.2981872558594,
				33.61967849731445,
				-6.794929504394531e-06
			]
		},
		{
			"children":[
				24
			],
			"name":"RootNode.001",
			"translation":[
				9.824750122788828e-06,
				0,
				-3.5762786865234375e-06
			]
		},
		{
			"children":[
				25
			],
			"name":"819dc7c7a2c04bc0b1a226e8941ef446.fbx",
			"rotation":[
				0.6366254687309265,
				-0.29618731141090393,
				-0.30035200715065,
				0.645577073097229
			],
			"scale":[
				0.00800000037997961,
				0.00800000037997961,
				0.00800000037997961
			],
			"translation":[
				1.6499998569488525,
				-0.8200000524520874,
				-1.0099999904632568
			]
		},
		{
			"children":[
				26
			],
			"name":"Sketchfab_model.002",
			"rotation":[
				-0.70710688829422,
				0,
				0,
				0.7071066498756409
			]
		},
		{
			"mesh":8,
			"name":"Cube",
			"scale":[
				1.9199999570846558,
				1.0800000429153442,
				1.3333300352096558
			]
		}
	],
	"materials":[
		{
			"doubleSided":true,
			"name":"Material.003",
			"pbrMetallicRoughness":{
				"baseColorFactor":[
					0.4527449905872345,
					0.0391124002635479,
					0.030508900061249733,
					1
				],
				"metallicFactor":0,
				"roughnessFactor":0.9717295169830322
			}
		},
		{
			"doubleSided":true,
			"name":"Material",
			"pbrMetallicRoughness":{
				"baseColorFactor":[
					0.3069950044155121,
					0.3069950044155121,
					0.3069950044155121,
					1
				],
				"metallicFactor":0,
				"roughnessFactor":0.9313538074493408
			}
		},
		{
			"doubleSided":true,
			"name":"Material.001",
			"pbrMetallicRoughness":{
				"baseColorFactor":[
					0.35883989930152893,
					0.35883989930152893,
					0.35883989930152893,
					1
				],
				"metallicFactor":0,
				"roughnessFactor":0.5
			}
		},
		{
			"doubleSided":true,
			"name":"lamp",
			"pbrMetallicRoughness":{
				"baseColorFactor":[
					0.053650300949811935,
					0.053650300949811935,
					0.053650300949811935,
					1
				],
				"metallicFactor":0,
				"roughnessFactor":0.9871605634689331
			}
		},
		{
			"doubleSided":true,
			"emissiveFactor":[
				1,
				0.653204821725513,
				0.139798983350839
			],
			"extensions":{
				"KHR_materials_emissive_strength":{
					"emissiveStrength":4.141460657119751
				}
			},
			"name":"light",
			"pbrMetallicRoughness":{
				"baseColorFactor":[
					0.800000011920929,
					0.800000011920929,
					0.800000011920929,
					1
				],
				"metallicFactor":0,
				"roughnessFactor":0.8211145401000977
			}
		},
		{
			"doubleSided":true,
			"name":"Floor",
			"pbrMetallicRoughness":{
				"baseColorFactor":[
					0.04817179962992668,
					0.03189600631594658,
					0.039546236395835876,
					1
				],
				"metallicFactor":0,
				"roughnessFactor":0.5
			}
		},
		{
			"doubleSided":true,
			"name":"background",
			"pbrMetallicRoughness":{
				"baseColorTexture":{
					"index":0
				},
				"metallicFactor":0,
				"roughnessFactor":0.5
			}
		},
		{
			"doubleSided":true,
			"name":"Sky",
			"pbrMetallicRoughness":{
				"baseColorFactor":[
					0.11953764408826828,
					0.43965664505958557,
					0.814846396446228,
					1
				],
				"metallicFactor":0,
				"roughnessFactor":0.5
			}
		},
		{
			"doubleSided":true,
			"name":"Street",
			"pbrMetallicRoughness":{
				"baseColorFactor":[
					0.23955239355564117,
					0.2182110995054245,
					0.2119230479001999,
					1
				],
				"metallicFactor":0,
				"roughnessFactor":0.5
			}
		}
	],
	"meshes":[
		{
			"name":"Circle_Material.003_0",
			"primitives":[
				{
					"attributes":{
						"POSITION":0,
						"TEXCOORD_0":1,
						"NORMAL":2
					},
					"indices":3,
					"material":0
				}
			]
		},
		{
			"name":"Circle.001_Material_0",
			"primitives":[
				{
					"attributes":{
						"POSITION":4,
						"TEXCOORD_0":5,
						"NORMAL":6
					},
					"indices":7,
					"material":1
				}
			]
		},
		{
			"name":"Circle.002_Material_0",
			"primitives":[
				{
					"attributes":{
						"POSITION":8,
						"TEXCOORD_0":9,
						"NORMAL":10
					},
					"indices":11,
					"material":1
				}
			]
		},
		{
			"name":"Cylinder.001_Material_0",
			"primitives":[
				{
					"attributes":{
						"POSITION":12,
						"TEXCOORD_0":13,
						"NORMAL":14
					},
					"indices":15,
					"material":1
				}
			]
		},
		{
			"name":"Cylinder.002_Material_0",
			"primitives":[
				{
					"attributes":{
						"POSITION":16,
						"TEXCOORD_0":17,
						"NORMAL":18
					},
					"indices":15,
					"material":1
				}
			]
		},
		{
			"name":"Object_0",
			"primitives":[
				{
					"attributes":{
						"POSITION":19,
						"TEXCOORD_0":20,
						"NORMAL":21
					},
					"indices":22,
					"material":2
				}
			]
		},
		{
			"name":"Cylinder_lamp_0.001",
			"primitives":[
				{
					"attributes":{
						"POSITION":23,
						"TEXCOORD_0":24,
						"NORMAL":25
					},
					"indices":26,
					"material":3
				}
			]
		},
		{
			"name":"Cylinder_light_0",
			"primitives":[
				{
					"attributes":{
						"POSITION":27,
						"TEXCOORD_0":28,
						"NORMAL":29
					},
					"indices":30,
					"material":4
				}
			]
		},
		{
			"name":"Cube",
			"primitives":[
				{
					"attributes":{
						"POSITION":31,
						"TEXCOORD_0":32,
						"NORMAL":33
					},
					"indices":34,
					"material":5
				},
				{
					"attributes":{
						"POSITION":35,
						"TEXCOORD_0":36,
						"NORMAL":37
					},
					"indices":38,
					"material":6
				},
				{
					"attributes":{
						"POSITION":39,
						"TEXCOORD_0":40,
						"NORMAL":41
					},
					"indices":42,
					"material":7
				},
				{
					"attributes":{
						"POSITION":43,
						"TEXCOORD_0":44,
						"NORMAL":45
					},
					"indices":46,
					"material":8
				}
			]
		}
	],
	"textures":[
		{
			"sampler":0,
			"source":0
		}
	],
	"images":[
		{
			"mimeType":"image/png",
			"name":"citybg",
			"uri":"/src/components/objects/City/citybg.png"
		}
	],
	"accessors":[
		{
			"bufferView":0,
			"componentType":5126,
			"count":898,
			"max":[
				1.3790851831436157,
				1.3790851831436157,
				4.988898754119873
			],
			"min":[
				-1.3790851831436157,
				-1.3790851831436157,
				0
			],
			"type":"VEC3"
		},
		{
			"bufferView":1,
			"componentType":5126,
			"count":898,
			"type":"VEC2"
		},
		{
			"bufferView":2,
			"componentType":5126,
			"count":898,
			"type":"VEC3"
		},
		{
			"bufferView":3,
			"componentType":5123,
			"count":1428,
			"type":"SCALAR"
		},
		{
			"bufferView":4,
			"componentType":5126,
			"count":1446,
			"max":[
				0.9390876889228821,
				0.9368969798088074,
				6.6040120124816895
			],
			"min":[
				-0.9390876889228821,
				-0.9412787556648254,
				-2.2334752082824707
			],
			"type":"VEC3"
		},
		{
			"bufferView":5,
			"componentType":5126,
			"count":1446,
			"type":"VEC2"
		},
		{
			"bufferView":6,
			"componentType":5126,
			"count":1446,
			"type":"VEC3"
		},
		{
			"bufferView":7,
			"componentType":5123,
			"count":2220,
			"type":"SCALAR"
		},
		{
			"bufferView":8,
			"componentType":5126,
			"count":372,
			"max":[
				0.8504927158355713,
				0.8504929542541504,
				1.5985817909240723
			],
			"min":[
				-0.8504932522773743,
				-0.8504929542541504,
				0.08618989586830139
			],
			"type":"VEC3"
		},
		{
			"bufferView":9,
			"componentType":5126,
			"count":372,
			"type":"VEC2"
		},
		{
			"bufferView":10,
			"componentType":5126,
			"count":372,
			"type":"VEC3"
		},
		{
			"bufferView":11,
			"componentType":5123,
			"count":576,
			"type":"SCALAR"
		},
		{
			"bufferView":12,
			"componentType":5126,
			"count":436,
			"max":[
				17.289567947387695,
				2.7465169429779053,
				0.924098014831543
			],
			"min":[
				-5.517446041107178,
				-20.060998916625977,
				-1.2121638059616089
			],
			"type":"VEC3"
		},
		{
			"bufferView":13,
			"componentType":5126,
			"count":436,
			"type":"VEC2"
		},
		{
			"bufferView":14,
			"componentType":5126,
			"count":436,
			"type":"VEC3"
		},
		{
			"bufferView":15,
			"componentType":5123,
			"count":720,
			"type":"SCALAR"
		},
		{
			"bufferView":16,
			"componentType":5126,
			"count":436,
			"max":[
				17.289567947387695,
				2.7925047874450684,
				1
			],
			"min":[
				-5.517446041107178,
				-20.468294143676758,
				-1.0579524040222168
			],
			"type":"VEC3"
		},
		{
			"bufferView":17,
			"componentType":5126,
			"count":436,
			"type":"VEC2"
		},
		{
			"bufferView":18,
			"componentType":5126,
			"count":436,
			"type":"VEC3"
		},
		{
			"bufferView":19,
			"componentType":5126,
			"count":386,
			"max":[
				-6.722540855407715,
				3.464282989501953,
				7.475632190704346
			],
			"min":[
				-14.968487739562988,
				-5.1432390213012695,
				-3.998850107192993
			],
			"type":"VEC3"
		},
		{
			"bufferView":20,
			"componentType":5126,
			"count":386,
			"type":"VEC2"
		},
		{
			"bufferView":21,
			"componentType":5126,
			"count":386,
			"type":"VEC3"
		},
		{
			"bufferView":22,
			"componentType":5123,
			"count":1068,
			"type":"SCALAR"
		},
		{
			"bufferView":23,
			"componentType":5126,
			"count":2615,
			"max":[
				9.651090621948242,
				1.5506030321121216,
				8.137687683105469
			],
			"min":[
				-1.5347964763641357,
				-1.5506030321121216,
				-1.2502727508544922
			],
			"type":"VEC3"
		},
		{
			"bufferView":24,
			"componentType":5126,
			"count":2615,
			"type":"VEC2"
		},
		{
			"bufferView":25,
			"componentType":5126,
			"count":2615,
			"type":"VEC3"
		},
		{
			"bufferView":26,
			"componentType":5123,
			"count":11232,
			"type":"SCALAR"
		},
		{
			"bufferView":27,
			"componentType":5126,
			"count":56,
			"max":[
				9.384584426879883,
				0.6463460922241211,
				7.842770576477051
			],
			"min":[
				6.0364251136779785,
				-0.6463534235954285,
				7.503793716430664
			],
			"type":"VEC3"
		},
		{
			"bufferView":28,
			"componentType":5126,
			"count":56,
			"type":"VEC2"
		},
		{
			"bufferView":29,
			"componentType":5126,
			"count":56,
			"type":"VEC3"
		},
		{
			"bufferView":30,
			"componentType":5123,
			"count":132,
			"type":"SCALAR"
		},
		{
			"bufferView":31,
			"componentType":5126,
			"count":15,
			"max":[
				1,
				-1,
				1
			],
			"min":[
				-1,
				-1,
				-4.470348358154297e-07
			],
			"type":"VEC3"
		},
		{
			"bufferView":32,
			"componentType":5126,
			"count":15,
			"type":"VEC2"
		},
		{
			"bufferView":33,
			"componentType":5126,
			"count":15,
			"type":"VEC3"
		},
		{
			"bufferView":34,
			"componentType":5123,
			"count":48,
			"type":"SCALAR"
		},
		{
			"bufferView":35,
			"componentType":5126,
			"count":97,
			"max":[
				1,
				1,
				1
			],
			"min":[
				-1,
				-1,
				-1
			],
			"type":"VEC3"
		},
		{
			"bufferView":36,
			"componentType":5126,
			"count":97,
			"type":"VEC2"
		},
		{
			"bufferView":37,
			"componentType":5126,
			"count":97,
			"type":"VEC3"
		},
		{
			"bufferView":38,
			"componentType":5123,
			"count":312,
			"type":"SCALAR"
		},
		{
			"bufferView":39,
			"componentType":5126,
			"count":13,
			"max":[
				1,
				1,
				1
			],
			"min":[
				-1,
				1,
				-1
			],
			"type":"VEC3"
		},
		{
			"bufferView":40,
			"componentType":5126,
			"count":13,
			"type":"VEC2"
		},
		{
			"bufferView":41,
			"componentType":5126,
			"count":13,
			"type":"VEC3"
		},
		{
			"bufferView":42,
			"componentType":5123,
			"count":33,
			"type":"SCALAR"
		},
		{
			"bufferView":43,
			"componentType":5126,
			"count":25,
			"max":[
				1,
				-0.9495487809181213,
				1.1920928955078125e-07
			],
			"min":[
				-1,
				-1,
				-1
			],
			"type":"VEC3"
		},
		{
			"bufferView":44,
			"componentType":5126,
			"count":25,
			"type":"VEC2"
		},
		{
			"bufferView":45,
			"componentType":5126,
			"count":25,
			"type":"VEC3"
		},
		{
			"bufferView":46,
			"componentType":5123,
			"count":72,
			"type":"SCALAR"
		}
	],
	"bufferViews":[
		{
			"buffer":0,
			"byteLength":10776,
			"byteOffset":0,
			"target":34962
		},
		{
			"buffer":0,
			"byteLength":7184,
			"byteOffset":10776,
			"target":34962
		},
		{
			"buffer":0,
			"byteLength":10776,
			"byteOffset":17960,
			"target":34962
		},
		{
			"buffer":0,
			"byteLength":2856,
			"byteOffset":28736,
			"target":34963
		},
		{
			"buffer":0,
			"byteLength":17352,
			"byteOffset":31592,
			"target":34962
		},
		{
			"buffer":0,
			"byteLength":11568,
			"byteOffset":48944,
			"target":34962
		},
		{
			"buffer":0,
			"byteLength":17352,
			"byteOffset":60512,
			"target":34962
		},
		{
			"buffer":0,
			"byteLength":4440,
			"byteOffset":77864,
			"target":34963
		},
		{
			"buffer":0,
			"byteLength":4464,
			"byteOffset":82304,
			"target":34962
		},
		{
			"buffer":0,
			"byteLength":2976,
			"byteOffset":86768,
			"target":34962
		},
		{
			"buffer":0,
			"byteLength":4464,
			"byteOffset":89744,
			"target":34962
		},
		{
			"buffer":0,
			"byteLength":1152,
			"byteOffset":94208,
			"target":34963
		},
		{
			"buffer":0,
			"byteLength":5232,
			"byteOffset":95360,
			"target":34962
		},
		{
			"buffer":0,
			"byteLength":3488,
			"byteOffset":100592,
			"target":34962
		},
		{
			"buffer":0,
			"byteLength":5232,
			"byteOffset":104080,
			"target":34962
		},
		{
			"buffer":0,
			"byteLength":1440,
			"byteOffset":109312,
			"target":34963
		},
		{
			"buffer":0,
			"byteLength":5232,
			"byteOffset":110752,
			"target":34962
		},
		{
			"buffer":0,
			"byteLength":3488,
			"byteOffset":115984,
			"target":34962
		},
		{
			"buffer":0,
			"byteLength":5232,
			"byteOffset":119472,
			"target":34962
		},
		{
			"buffer":0,
			"byteLength":4632,
			"byteOffset":124704,
			"target":34962
		},
		{
			"buffer":0,
			"byteLength":3088,
			"byteOffset":129336,
			"target":34962
		},
		{
			"buffer":0,
			"byteLength":4632,
			"byteOffset":132424,
			"target":34962
		},
		{
			"buffer":0,
			"byteLength":2136,
			"byteOffset":137056,
			"target":34963
		},
		{
			"buffer":0,
			"byteLength":31380,
			"byteOffset":139192,
			"target":34962
		},
		{
			"buffer":0,
			"byteLength":20920,
			"byteOffset":170572,
			"target":34962
		},
		{
			"buffer":0,
			"byteLength":31380,
			"byteOffset":191492,
			"target":34962
		},
		{
			"buffer":0,
			"byteLength":22464,
			"byteOffset":222872,
			"target":34963
		},
		{
			"buffer":0,
			"byteLength":672,
			"byteOffset":245336,
			"target":34962
		},
		{
			"buffer":0,
			"byteLength":448,
			"byteOffset":246008,
			"target":34962
		},
		{
			"buffer":0,
			"byteLength":672,
			"byteOffset":246456,
			"target":34962
		},
		{
			"buffer":0,
			"byteLength":264,
			"byteOffset":247128,
			"target":34963
		},
		{
			"buffer":0,
			"byteLength":180,
			"byteOffset":247392,
			"target":34962
		},
		{
			"buffer":0,
			"byteLength":120,
			"byteOffset":247572,
			"target":34962
		},
		{
			"buffer":0,
			"byteLength":180,
			"byteOffset":247692,
			"target":34962
		},
		{
			"buffer":0,
			"byteLength":96,
			"byteOffset":247872,
			"target":34963
		},
		{
			"buffer":0,
			"byteLength":1164,
			"byteOffset":247968,
			"target":34962
		},
		{
			"buffer":0,
			"byteLength":776,
			"byteOffset":249132,
			"target":34962
		},
		{
			"buffer":0,
			"byteLength":1164,
			"byteOffset":249908,
			"target":34962
		},
		{
			"buffer":0,
			"byteLength":624,
			"byteOffset":251072,
			"target":34963
		},
		{
			"buffer":0,
			"byteLength":156,
			"byteOffset":251696,
			"target":34962
		},
		{
			"buffer":0,
			"byteLength":104,
			"byteOffset":251852,
			"target":34962
		},
		{
			"buffer":0,
			"byteLength":156,
			"byteOffset":251956,
			"target":34962
		},
		{
			"buffer":0,
			"byteLength":66,
			"byteOffset":252112,
			"target":34963
		},
		{
			"buffer":0,
			"byteLength":300,
			"byteOffset":252180,
			"target":34962
		},
		{
			"buffer":0,
			"byteLength":200,
			"byteOffset":252480,
			"target":34962
		},
		{
			"buffer":0,
			"byteLength":300,
			"byteOffset":252680,
			"target":34962
		},
		{
			"buffer":0,
			"byteLength":144,
			"byteOffset":252980,
			"target":34963
		}
	],
	"samplers":[
		{
			"magFilter":9729,
			"minFilter":9987
		}
	],
	"buffers":[
		{
			"byteLength":253124,
			"uri":"/src/components/objects/City/city.bin"
		}
	]
}
