{
  "accessors": [
    {
      "bufferView": 3,
      "componentType": 5126,
      "count": 3836,
      "max": [
        0.3423542082309723,
        0.6529501080513,
        0.16555504500865936
      ],
      "min": [
        -0.34235426783561707,
        -0.6157140135765076,
        -0.21105803549289703
      ],
      "type": "VEC3"
    },
    {
      "bufferView": 3,
      "byteOffset": 46032,
      "componentType": 5126,
      "count": 3836,
      "max": [
        0.9999328255653381,
        0.999833881855011,
        0.9977176189422607
      ],
      "min": [
        -0.9999328255653381,
        -0.9983659386634827,
        -0.9946823716163635
      ],
      "type": "VEC3"
    },
    {
      "bufferView": 2,
      "componentType": 5126,
      "count": 3836,
      "max": [
        4.06835412979126,
        3.435821294784546
      ],
      "min": [
        -3.0814802646636963,
        -2.6023833751678467
      ],
      "type": "VEC2"
    },
    {
      "bufferView": 2,
      "byteOffset": 30688,
      "componentType": 5126,
      "count": 3836,
      "max": [
        0.13020938634872437,
        0.9819997549057007
      ],
      "min": [
        0.0,
        0.0
      ],
      "type": "VEC2"
    },
    {
      "bufferView": 1,
      "componentType": 5125,
      "count": 4182,
      "type": "SCALAR"
    },
    {
      "bufferView": 3,
      "byteOffset": 92064,
      "componentType": 5126,
      "count": 92,
      "max": [
        0.08683307468891144,
        0.5441603660583496,
        0.1658550649881363
      ],
      "min": [
        -0.08647540211677551,
        0.34289953112602234,
        0.12704430520534515
      ],
      "type": "VEC3"
    },
    {
      "bufferView": 3,
      "byteOffset": 93168,
      "componentType": 5126,
      "count": 92,
      "max": [
        0.07834301143884659,
        0.3204503357410431,
        0.9932000041007996
      ],
      "min": [
        -0.07833933085203171,
        -0.1682584434747696,
        0.9469738602638245
      ],
      "type": "VEC3"
    },
    {
      "bufferView": 2,
      "byteOffset": 61376,
      "componentType": 5126,
      "count": 92,
      "max": [
        0.7312110066413879,
        1.088059902191162
      ],
      "min": [
        0.2499661147594452,
        0.19657595455646515
      ],
      "type": "VEC2"
    },
    {
      "bufferView": 2,
      "byteOffset": 62112,
      "componentType": 5126,
      "count": 92,
      "max": [
        0.1308964192867279,
        0.9783406853675842
      ],
      "min": [
        0.00390625,
        0.876758337020874
      ],
      "type": "VEC2"
    },
    {
      "bufferView": 1,
      "byteOffset": 16728,
      "componentType": 5125,
      "count": 126,
      "type": "SCALAR"
    },
    {
      "bufferView": 3,
      "byteOffset": 94272,
      "componentType": 5126,
      "count": 36,
      "max": [
        0.11546016484498978,
        0.30406108498573303,
        0.12531331181526184
      ],
      "min": [
        -0.11546021699905396,
        0.00906312745064497,
        0.08826981484889984
      ],
      "type": "VEC3"
    },
    {
      "bufferView": 3,
      "byteOffset": 94704,
      "componentType": 5126,
      "count": 36,
      "max": [
        0.20773087441921234,
        0.24268358945846558,
        0.9823633432388306
      ],
      "min": [
        -0.20773088932037354,
        -0.13609832525253296,
        0.9671517610549927
      ],
      "type": "VEC3"
    },
    {
      "bufferView": 2,
      "byteOffset": 62848,
      "componentType": 5126,
      "count": 36,
      "max": [
        0.36263319849967957,
        0.33244550228118896
      ],
      "min": [
        0.23717263340950012,
        0.023338720202445984
      ],
      "type": "VEC2"
    },
    {
      "bufferView": 2,
      "byteOffset": 63136,
      "componentType": 5126,
      "count": 36,
      "max": [
        0.18565475940704346,
        0.9875579476356506
      ],
      "min": [
        0.012223124504089355,
        0.8558735847473145
      ],
      "type": "VEC2"
    },
    {
      "bufferView": 1,
      "byteOffset": 17232,
      "componentType": 5125,
      "count": 42,
      "type": "SCALAR"
    },
    {
      "bufferView": 5,
      "componentType": 5126,
      "count": 15,
      "max": [
        1.0,
        0.20428131520748138,
        0.07159720361232758,
        0.0,
        0.1994333416223526,
        1.0000001192092896,
        0.8909085392951965,
        0.0,
        0.17120404541492462,
        0.8926695585250854,
        1.0,
        0.0,
        0.29732847213745117,
        0.2905922830104828,
        0.41271886229515076,
        1.0
      ],
      "min": [
        -0.9980266690254211,
        -0.2051570564508438,
        -0.0717146024107933,
        0.0,
        -0.19862844049930573,
        -1.0,
        -0.1569640338420868,
        0.0,
        -0.07336822152137756,
        -0.14940539002418518,
        0.4498218297958374,
        0.0,
        -0.2914373576641083,
        -0.5030520558357239,
        -0.012065941467881203,
        1.0
      ],
      "type": "MAT4"
    },
    {
      "bufferView": 0,
      "componentType": 5123,
      "count": 3836,
      "type": "VEC4"
    },
    {
      "bufferView": 4,
      "componentType": 5126,
      "count": 3836,
      "max": [
        1.0,
        0.48256704211235046,
        0.2441163957118988,
        0.14144307374954224
      ],
      "min": [
        0.3955971598625183,
        0.0,
        0.0,
        0.0
      ],
      "type": "VEC4"
    },
    {
      "bufferView": 0,
      "byteOffset": 30688,
      "componentType": 5123,
      "count": 92,
      "type": "VEC4"
    },
    {
      "bufferView": 4,
      "byteOffset": 61376,
      "componentType": 5126,
      "count": 92,
      "max": [
        1.0,
        0.0,
        0.0,
        0.0
      ],
      "min": [
        1.0,
        0.0,
        0.0,
        0.0
      ],
      "type": "VEC4"
    },
    {
      "bufferView": 0,
      "byteOffset": 31424,
      "componentType": 5123,
      "count": 36,
      "type": "VEC4"
    },
    {
      "bufferView": 4,
      "byteOffset": 62848,
      "componentType": 5126,
      "count": 36,
      "max": [
        1.0,
        0.0,
        0.0,
        0.0
      ],
      "min": [
        1.0,
        0.0,
        0.0,
        0.0
      ],
      "type": "VEC4"
    }
  ],
  "asset": {
    "extras": {
      "author": "Exonl (https://sketchfab.com/exonlgm)",
      "license": "CC-BY-4.0 (http://creativecommons.org/licenses/by/4.0/)",
      "source": "https://sketchfab.com/3d-models/gorilla-tag-rigs-55fbba005b6c4244ba4045fc3b4fbf6e",
      "title": "Gorilla Tag Rigs"
    },
    "generator": "Sketchfab-12.68.0",
    "version": "2.0"
  },
  "bufferViews": [
    {
      "buffer": 0,
      "byteLength": 31712,
      "byteStride": 8,
      "name": "shortBufferViews",
      "target": 34962
    },
    {
      "buffer": 0,
      "byteLength": 17400,
      "byteOffset": 31712,
      "name": "floatBufferViews",
      "target": 34963
    },
    {
      "buffer": 0,
      "byteLength": 63424,
      "byteOffset": 49112,
      "byteStride": 8,
      "name": "floatBufferViews",
      "target": 34962
    },
    {
      "buffer": 0,
      "byteLength": 95136,
      "byteOffset": 112536,
      "byteStride": 12,
      "name": "floatBufferViews",
      "target": 34962
    },
    {
      "buffer": 0,
      "byteLength": 63424,
      "byteOffset": 207672,
      "byteStride": 16,
      "name": "floatBufferViews",
      "target": 34962
    },
    {
      "buffer": 0,
      "byteLength": 960,
      "byteOffset": 271096,
      "name": "floatBufferViews"
    }
  ],
  "buffers": [
    {
      "byteLength": 272056,
      "uri": "/src/components/objects/Gorilla/gorilla.bin"
    }
  ],
  "images": [
    {
      "uri": "/src/components/objects/Gorilla/textures/gorilla_texture.png"
    },
    {
      "uri": "/src/components/objects/Gorilla/textures/material_color_1.jpeg"
    },
    {
      "uri": "/src/components/objects/Gorilla/textures/material_color_2.jpeg"
    }
  ],
  "materials": [
    {
      "doubleSided": true,
      "name": "GorillaTexture",
      "pbrMetallicRoughness": {
        "baseColorTexture": {
          "index": 0
        },
        "metallicFactor": 0.0,
        "roughnessFactor": 0.0
      }
    },
    {
      "doubleSided": true,
      "name": "Material.001",
      "pbrMetallicRoughness": {
        "baseColorTexture": {
          "index": 1
        },
        "metallicFactor": 0.212598,
        "roughnessFactor": 0.34252
      }
    },
    {
      "doubleSided": true,
      "name": "Material.002",
      "pbrMetallicRoughness": {
        "baseColorTexture": {
          "index": 2
        },
        "metallicFactor": 0.0,
        "roughnessFactor": 0.5
      }
    }
  ],
  "meshes": [
    {
      "name": "Object_0",
      "primitives": [
        {
          "attributes": {
            "JOINTS_0": 16,
            "NORMAL": 1,
            "POSITION": 0,
            "TEXCOORD_0": 2,
            "TEXCOORD_1": 3,
            "WEIGHTS_0": 17
          },
          "indices": 4,
          "material": 0,
          "mode": 4
        }
      ]
    },
    {
      "name": "Object_1",
      "primitives": [
        {
          "attributes": {
            "JOINTS_0": 18,
            "NORMAL": 6,
            "POSITION": 5,
            "TEXCOORD_0": 7,
            "TEXCOORD_1": 8,
            "WEIGHTS_0": 19
          },
          "indices": 9,
          "material": 1,
          "mode": 4
        }
      ]
    },
    {
      "name": "Object_2",
      "primitives": [
        {
          "attributes": {
            "JOINTS_0": 20,
            "NORMAL": 11,
            "POSITION": 10,
            "TEXCOORD_0": 12,
            "TEXCOORD_1": 13,
            "WEIGHTS_0": 21
          },
          "indices": 14,
          "material": 2,
          "mode": 4
        }
      ]
    }
  ],
  "nodes": [
    {
      "children": [
        1
      ],
      "matrix": [
        1.0,
        0.0,
        0.0,
        0.0,
        0.0,
        2.220446049250313e-16,
        -1.0,
        0.0,
        0.0,
        1.0,
        2.220446049250313e-16,
        0.0,
        0.0,
        0.0,
        0.0,
        1.0
      ],
      "name": "Sketchfab_model"
    },
    {
      "children": [
        2
      ],
      "name": "root"
    },
    {
      "children": [
        3
      ],
      "matrix": [
        1.0,
        0.0,
        0.0,
        0.0,
        0.0,
        2.220446049250313e-16,
        1.0,
        0.0,
        0.0,
        -1.0,
        2.220446049250313e-16,
        0.0,
        0.0,
        0.0,
        0.0,
        1.0
      ],
      "name": "GLTF_SceneRootNode"
    },
    {
      "children": [
        4
      ],
      "matrix": [
        1.0,
        0.0,
        0.0,
        0.0,
        0.0,
        1.0,
        0.0,
        0.0,
        0.0,
        0.0,
        1.0,
        0.0,
        0.006455496419221163,
        -0.01946696639060974,
        -0.02429032325744629,
        1.0
      ],
      "name": "Lava Monke_15"
    },
    {
      "children": [
        5,
        7,
        8,
        9,
        6
      ],
      "name": "GLTF_created_0"
    },
    {
      "children": [
        10
      ],
      "name": "GLTF_created_0_rootJoint"
    },
    {
      "name": "GorillaBody_14"
    },
    {
      "mesh": 0,
      "name": "Object_7",
      "skin": 0
    },
    {
      "mesh": 1,
      "name": "Object_8",
      "skin": 0
    },
    {
      "mesh": 2,
      "name": "Object_9",
      "skin": 0
    },
    {
      "children": [
        11,
        12,
        18
      ],
      "name": "Main_13",
      "rotation": [
        0.026871243491768837,
        1.191662448718489e-07,
        3.2033009578213978e-09,
        0.9996389150619507
      ]
    },
    {
      "name": "Head_0",
      "rotation": [
        -0.02687123417854309,
        -1.0412100226308774e-16,
        -6.406601471553586e-09,
        0.9996389150619507
      ],
      "scale": [
        1.0,
        0.9999999403953552,
        1.0
      ],
      "translation": [
        0.0,
        0.355597585439682,
        0.0
      ]
    },
    {
      "children": [
        13
      ],
      "name": "Upper Arm R_6",
      "rotation": [
        0.015777692198753357,
        -0.050567012280225754,
        0.9933252930641174,
        0.10246459394693375
      ],
      "scale": [
        0.9999996423721313,
        1.000000238418579,
        1.0
      ],
      "translation": [
        -0.16741065680980682,
        0.3582885265350342,
        -0.029424361884593964
      ]
    },
    {
      "children": [
        14
      ],
      "name": "Lower Arm R_5",
      "rotation": [
        0.17715667188167572,
        0.0011926667066290975,
        0.049606554210186005,
        0.9829309582710266
      ],
      "scale": [
        0.9999998807907104,
        1.0,
        1.0000001192092896
      ],
      "translation": [
        -1.2583882380567957e-08,
        0.3883265554904938,
        1.2809522331735934e-08
      ]
    },
    {
      "children": [
        15,
        16,
        17
      ],
      "name": "Wrist R_4",
      "rotation": [
        -0.14973708987236023,
        -0.010323481634259224,
        0.0014270192477852106,
        0.9886710047721863
      ],
      "scale": [
        0.9999999403953552,
        1.0,
        0.9999999403953552
      ],
      "translation": [
        -5.351066434400309e-08,
        0.3712337911128998,
        -2.6033417643844814e-09
      ]
    },
    {
      "name": "PinkyF R_1",
      "rotation": [
        0.05306205525994301,
        0.002806194592267275,
        0.049983106553554535,
        0.99733567237854
      ],
      "scale": [
        0.9999998211860657,
        1.0,
        1.0
      ],
      "translation": [
        0.006675361655652523,
        0.10231317579746246,
        -0.02405080944299698
      ]
    },
    {
      "name": "PointerF R_2",
      "rotation": [
        0.05306205898523331,
        0.0028061983175575733,
        0.049983106553554535,
        0.99733567237854
      ],
      "scale": [
        0.9999998211860657,
        1.0,
        1.0
      ],
      "translation": [
        0.009648347273468971,
        0.09890452027320862,
        0.0171883013099432
      ]
    },
    {
      "name": "Thumb R_3",
      "rotation": [
        0.5326420068740845,
        -0.015101540833711624,
        0.08086041361093521,
        0.8423336744308472
      ],
      "scale": [
        0.9999999403953552,
        0.9999998211860657,
        1.0
      ],
      "translation": [
        -0.022634869441390038,
        0.052880577743053436,
        0.04827653616666794
      ]
    },
    {
      "children": [
        19
      ],
      "name": "Upper Arm L_12",
      "rotation": [
        0.016076436266303062,
        0.04844680428504944,
        -0.9934710264205933,
        0.10202804207801819
      ],
      "scale": [
        1.0000016689300537,
        1.0,
        1.0000003576278687
      ],
      "translation": [
        0.15863382816314697,
        0.3540268838405609,
        -0.029194997623562813
      ]
    },
    {
      "children": [
        20
      ],
      "name": "Lower Arm L_11",
      "rotation": [
        0.17598791420459747,
        -0.0002746854443103075,
        -0.055475592613220215,
        0.98282790184021
      ],
      "scale": [
        0.9999998807907104,
        0.9999999403953552,
        0.9999999403953552
      ],
      "translation": [
        1.216181738650235e-10,
        0.38999029994010925,
        -1.2928120796118492e-09
      ]
    },
    {
      "children": [
        21,
        22,
        23
      ],
      "name": "Wrist L_10",
      "rotation": [
        -0.1536870002746582,
        0.00929909385740757,
        0.003437213134020567,
        0.9880698323249817
      ],
      "scale": [
        0.9999998807907104,
        1.0,
        0.9999998807907104
      ],
      "translation": [
        8.381862315332e-09,
        0.3718090057373047,
        1.0445716291940244e-08
      ]
    },
    {
      "name": "PinkyF L_7",
      "rotation": [
        0.056030865758657455,
        -0.002739092567935586,
        -0.04852129891514778,
        0.9972455501556396
      ],
      "scale": [
        1.0,
        0.9999999403953552,
        1.0000001192092896
      ],
      "translation": [
        -0.012986086308956146,
        0.10308326035737991,
        -0.024184919893741608
      ]
    },
    {
      "name": "Pointer L_8",
      "rotation": [
        0.05603085830807686,
        -0.002739088376984,
        -0.04852129891514778,
        0.9972455501556396
      ],
      "scale": [
        1.0,
        0.9999999403953552,
        1.0000001192092896
      ],
      "translation": [
        -0.01656438410282135,
        0.09635373204946518,
        0.021520864218473434
      ]
    },
    {
      "name": "Thumb L_9",
      "rotation": [
        0.569220781326294,
        -0.02955467626452446,
        -0.007078689988702536,
        0.8216228485107422
      ],
      "scale": [
        1.0,
        1.0,
        0.9999999403953552
      ],
      "translation": [
        0.025403983891010284,
        0.045181628316640854,
        0.04670722037553787
      ]
    }
  ],
  "samplers": [
    {
      "magFilter": 9729,
      "minFilter": 9987,
      "wrapS": 10497,
      "wrapT": 10497
    }
  ],
  "scene": 0,
  "scenes": [
    {
      "name": "Sketchfab_Scene",
      "nodes": [
        0
      ]
    }
  ],
  "skins": [
    {
      "inverseBindMatrices": 15,
      "joints": [
        5,
        10,
        11,
        12,
        13,
        14,
        15,
        16,
        17,
        18,
        19,
        20,
        21,
        22,
        23
      ],
      "skeleton": 5
    }
  ],
  "textures": [
    {
      "sampler": 0,
      "source": 0
    },
    {
      "sampler": 0,
      "source": 1
    },
    {
      "sampler": 0,
      "source": 2
    }
  ]
}
