{
	"asset":{
		"generator":"Khronos glTF Blender I/O v3.5.30",
		"version":"2.0"
	},
	"scene":0,
	"scenes":[
		{
			"name":"Scene",
			"nodes":[
				4
			]
		}
	],
	"nodes":[
		{
			"mesh":0,
			"name":"Banana_Banana_0"
		},
		{
			"children":[
				0
			],
			"name":"Banana",
			"scale":[
				2.5399999618530273,
				2.5399999618530273,
				2.5399999618530273
			]
		},
		{
			"children":[
				1
			],
			"name":"RootNode"
		},
		{
			"children":[
				2
			],
			"name":"6e19f76207804602b6f3f0dc71ab301a.fbx",
			"rotation":[
				0.70710688829422,
				0,
				0,
				0.7071066498756409
			]
		},
		{
			"children":[
				3
			],
			"name":"Sketchfab_model",
			"rotation":[
				-0.70710688829422,
				0,
				0,
				0.7071066498756409
			],
			"scale":[
				0.20000000298023224,
				0.20000003278255463,
				0.20000003278255463
			]
		}
	],
	"materials":[
		{
			"doubleSided":true,
			"name":"Banana",
			"normalTexture":{
				"index":0
			},
			"pbrMetallicRoughness":{
				"baseColorTexture":{
					"index":1
				},
				"metallicFactor":0,
				"metallicRoughnessTexture":{
					"index":2
				}
			}
		}
	],
	"meshes":[
		{
			"name":"Banana_Banana_0",
			"primitives":[
				{
					"attributes":{
						"POSITION":0,
						"TEXCOORD_0":1,
						"TEXCOORD_1":2,
						"TEXCOORD_2":3,
						"TEXCOORD_3":4,
						"TEXCOORD_4":5,
						"TEXCOORD_5":6,
						"TEXCOORD_6":7,
						"TEXCOORD_7":8,
						"NORMAL":9
					},
					"indices":10,
					"material":0
				}
			]
		}
	],
	"textures":[
		{
			"sampler":0,
			"source":0
		},
		{
			"sampler":0,
			"source":1
		},
		{
			"sampler":0,
			"source":2
		}
	],
	"images":[
		{
			"mimeType":"image/png",
			"name":"Image_2",
			"uri":"src/components/objects/Banana/textures/Image_2.png"
		},
		{
			"mimeType":"image/png",
			"name":"Image_0",
			"uri":"src/components/objects/Banana/textures/Image_0.png"
		},
		{
			"mimeType":"image/png",
			"name":"Image_1",
			"uri":"src/components/objects/Banana/textures/Image_1.png"
		}
	],
	"accessors":[
		{
			"bufferView":0,
			"componentType":5126,
			"count":383,
			"max":[
				17.55901336669922,
				23.21997833251953,
				6.0848002433776855
			],
			"min":[
				-12.867859840393066,
				-17.046871185302734,
				-6.084798336029053
			],
			"type":"VEC3"
		},
		{
			"bufferView":1,
			"componentType":5126,
			"count":383,
			"type":"VEC2"
		},
		{
			"bufferView":2,
			"componentType":5126,
			"count":383,
			"type":"VEC2"
		},
		{
			"bufferView":3,
			"componentType":5126,
			"count":383,
			"type":"VEC2"
		},
		{
			"bufferView":4,
			"componentType":5126,
			"count":383,
			"type":"VEC2"
		},
		{
			"bufferView":5,
			"componentType":5126,
			"count":383,
			"type":"VEC2"
		},
		{
			"bufferView":6,
			"componentType":5126,
			"count":383,
			"type":"VEC2"
		},
		{
			"bufferView":7,
			"componentType":5126,
			"count":383,
			"type":"VEC2"
		},
		{
			"bufferView":8,
			"componentType":5126,
			"count":383,
			"type":"VEC2"
		},
		{
			"bufferView":9,
			"componentType":5126,
			"count":383,
			"type":"VEC3"
		},
		{
			"bufferView":10,
			"componentType":5123,
			"count":1956,
			"type":"SCALAR"
		}
	],
	"bufferViews":[
		{
			"buffer":0,
			"byteLength":4596,
			"byteOffset":0,
			"target":34962
		},
		{
			"buffer":0,
			"byteLength":3064,
			"byteOffset":4596,
			"target":34962
		},
		{
			"buffer":0,
			"byteLength":3064,
			"byteOffset":7660,
			"target":34962
		},
		{
			"buffer":0,
			"byteLength":3064,
			"byteOffset":10724,
			"target":34962
		},
		{
			"buffer":0,
			"byteLength":3064,
			"byteOffset":13788,
			"target":34962
		},
		{
			"buffer":0,
			"byteLength":3064,
			"byteOffset":16852,
			"target":34962
		},
		{
			"buffer":0,
			"byteLength":3064,
			"byteOffset":19916,
			"target":34962
		},
		{
			"buffer":0,
			"byteLength":3064,
			"byteOffset":22980,
			"target":34962
		},
		{
			"buffer":0,
			"byteLength":3064,
			"byteOffset":26044,
			"target":34962
		},
		{
			"buffer":0,
			"byteLength":4596,
			"byteOffset":29108,
			"target":34962
		},
		{
			"buffer":0,
			"byteLength":3912,
			"byteOffset":33704,
			"target":34963
		}
	],
	"samplers":[
		{
			"magFilter":9729,
			"minFilter":9987
		}
	],
	"buffers":[
		{
			"byteLength":37616,
			"uri":"src/components/objects/Banana/banana.bin"
		}
	]
}
